<?xml version="1.0" encoding="utf-8"?>
<!-- Generator: Adobe Illustrator 25.2.1, SVG Export Plug-In . SVG Version: 6.00 Build 0)  -->
<svg version="1.1" id="Layer_1" xmlns="http://www.w3.org/2000/svg" xmlns:xlink="http://www.w3.org/1999/xlink" x="0px" y="0px"
	 viewBox="0 0 654.2 469.2" style="enable-background:new 0 0 654.2 469.2;" xml:space="preserve">
<style type="text/css">
	.st0{fill:#D2FFFE;}
	.st1{fill:#00BCB7;}
	.st2{fill:#ADEAEA;}
	.st3{fill:#FFFFFF;}
	.st4{fill:#006164;}
	.st5{fill:#27ADAA;}
	.st6{fill:#416B6B;}
	.st7{fill:#52B5B5;}
	.st8{fill:#EBF2FC;}
	.st9{fill:#FFA188;}
	.st10{fill:#2D3969;}
	.st11{fill:#1D263F;}
	.st12{fill:#ED836E;}
	.st13{fill:#F9A74E;}
	.st14{fill:#CE6E05;}
	.st15{fill:#E87E15;}
	.st16{fill:#4B2C1B;}
	.st17{fill:#643A24;}
	.st18{fill:#7A91E6;}
	.st19{fill:#C6AA95;}
	.st20{fill:#F9B889;}
	.st21{fill:#FFA052;}
	.st22{fill:#D98853;}
</style>
<g id="Layer_2_1_">
	<g id="Edits">
		<g id="UI_UX_Vp_Mirror">
			<path class="st0" d="M2.1,322.5c-0.9-7.6-1.5-15.1-1.8-22.4s-0.4-14.5-0.2-21.5c0.8-27.4,5.4-54.5,13.8-80.6
				c8.3-26.1,20.3-50.9,35.7-73.5C92.7,61.8,158.8,18.6,233.6,4.3c71.5-13.4,158.7,5.5,224,49.1s108.8,111.8,93,197.1
				c7.9-4.3,16.9-5.7,25.7-4c8.8,1.7,17,5.6,23.9,11.4c5.4,4.6,10.2,9.9,14,15.9c3.9,6,7.1,12.4,9.6,19.1c8.8,22.7,10.6,47.8,6,71.7
				s-15.5,46.6-32,64.5c-9.1,9.9-17.7,16.4-27.2,21.2s-20,7.9-33.1,10.7c-13.4,2.9-29.4,2.6-45.5,1.7s-32.1-2.4-45.5-2.1
				c-36.7,0.9-72.9,1.8-109.1,2.2s-72.5,0.3-109.1-0.9c-21.4-0.7-35.9-0.9-52.2-0.9s-34.7-0.1-64.1-0.4c-14.1-0.2-27.9-3.4-40.6-9.5
				c-13-6.1-24.3-15.3-33-26.7c-10.4-13.7-18.4-30-24.3-47.4C8.2,359.2,4.2,341,2.1,322.5z"/>
			<polygon class="st1" points="617.7,469.2 331.3,469.2 45,469.2 45,459.7 45,450.3 331.3,450.3 617.7,450.3 617.7,459.7 			"/>
			<polygon class="st2" points="346.3,447.2 355.2,422.3 364.1,397.4 365.1,397.6 366.2,397.8 357.3,422.7 348.5,447.6 347.4,447.4 
							"/>
			<polygon class="st2" points="458.6,447.2 449.4,421.2 440.1,395.3 439,395.5 438,395.7 447.2,421.6 456.5,447.6 457.6,447.4 			
				"/>
			<polygon class="st2" points="403.6,449.7 403.6,415 403.6,380.3 402.5,380.3 401.4,380.3 401.4,415 401.4,449.7 402.5,449.7 			
				"/>
			<polygon class="st2" points="355.1,426.9 378.9,418.6 402.7,410.4 402.2,409.7 401.7,409 378,417.2 354.2,425.5 354.6,426.2 			
				"/>
			<polygon class="st2" points="449.4,426.8 425.8,418.6 402.1,410.4 402.6,409.7 403,409 426.7,417.2 450.4,425.4 449.9,426.1 			
				"/>
			<polygon class="st3" points="514.7,314.7 402,314.7 289.3,314.7 289.3,197.1 289.3,79.4 402,79.4 514.7,79.4 514.7,197.1 			"/>
			<path class="st4" d="M515.3,315.4H288.6V78.7h226.7V315.4z M290,314.1h224v-234H290V314.1z"/>
			<polygon class="st2" points="521.7,81.1 402,81.1 282.3,81.1 282.3,76.9 282.3,72.8 402,72.8 521.7,72.8 521.7,76.9 			"/>
			<path class="st4" d="M522.3,81.7H281.6v-9.6h240.7V81.7z M283,80.4h238v-7H283V80.4z"/>
			<polygon class="st5" points="416,66.6 402.9,66.6 389.8,66.6 389.8,69.7 389.8,72.8 402.9,72.8 416,72.8 416,69.7 			"/>
			<polygon class="st5" points="409,61.8 402.9,61.8 396.8,61.8 396.8,64.2 396.8,66.6 402.9,66.6 409,66.6 409,64.2 			"/>
			<polygon class="st5" points="424.9,325.2 402.9,325.2 381,325.2 381,322.9 381,320.6 402.9,320.6 424.9,320.6 424.9,322.9 			"/>
			<polygon class="st5" points="399.3,393 399.3,358.8 399.3,324.6 402.5,324.6 405.7,324.6 405.7,358.8 405.7,393 402.5,393 			"/>
			<polygon class="st5" points="362.1,396.9 375.7,358.7 389.3,320.6 392.4,321.1 395.5,321.7 381.9,359.9 368.3,398 365.2,397.5 
							"/>
			<polygon class="st5" points="442.5,396 429.1,358.3 415.6,320.6 412.5,321.1 409.4,321.7 422.9,359.4 436.3,397.1 439.4,396.6 
							"/>
			<polygon class="st2" points="521.7,320.6 402,320.6 282.3,320.6 282.3,316.4 282.3,312.3 402,312.3 521.7,312.3 521.7,316.4 			
				"/>
			<path class="st4" d="M522.3,321.2H281.6v-9.6h240.7V321.2z M283,319.9h238v-7H283V319.9z"/>
			<path class="st2" d="M308.4,203.2h-198c-7.4,0-13.3-6-13.3-13.4V27.2c0-3.5,1.4-6.9,3.9-9.5c1.2-1.2,2.7-2.2,4.2-2.9
				c1.6-0.7,3.4-1,5.2-1h198c1.8,0,3.6,0.3,5.2,1c3.2,1.4,5.7,3.9,7.1,7.2c0.7,1.6,1,3.4,1,5.2v162.7c0,1.8-0.3,3.5-1,5.2
				c-0.7,1.6-1.6,3-2.9,4.2C315.4,201.8,312,203.3,308.4,203.2z"/>
			<polygon class="st6" points="158.3,104.5 146.9,104.5 135.5,104.5 124.1,104.5 112.7,104.5 112.7,93.1 112.7,81.7 112.7,70.3 
				112.7,58.9 124.1,58.9 135.5,58.9 146.9,58.9 158.3,58.9 158.3,70.3 158.3,81.7 158.3,93.1 			"/>
			<polygon class="st3" points="112.8,104.6 112.8,104.6 112.7,104.5 112.7,104.4 112.6,104.4 124,93 135.4,81.6 146.8,70.2 
				158.2,58.8 158.3,58.8 158.3,58.9 158.4,59 158.5,59 147.1,70.4 135.7,81.8 124.2,93.2 			"/>
			<polygon class="st3" points="158.2,104.6 146.8,93.2 135.4,81.8 124,70.4 112.6,59 112.7,59 112.7,58.9 112.8,58.8 112.8,58.8 
				124.2,70.2 135.7,81.6 147.1,93 158.5,104.4 158.4,104.4 158.3,104.5 158.3,104.6 			"/>
			<polygon class="st5" points="219.1,104.5 207.7,104.5 196.3,104.5 184.9,104.5 173.5,104.5 173.5,93.1 173.5,81.7 173.5,70.3 
				173.5,58.9 184.9,58.9 196.3,58.9 207.7,58.9 219.1,58.9 219.1,70.3 219.1,81.7 219.1,93.1 			"/>
			<polygon class="st3" points="173.6,104.6 173.6,104.6 173.5,104.5 173.4,104.4 173.4,104.4 184.8,93 196.2,81.6 207.6,70.2 
				219,58.8 219,58.8 219.1,58.9 219.2,59 219.2,59 207.8,70.4 196.4,81.8 185,93.2 			"/>
			<polygon class="st3" points="219,104.6 207.6,93.2 196.2,81.8 184.8,70.4 173.4,59 173.4,59 173.5,58.9 173.6,58.8 173.6,58.8 
				185,70.2 196.4,81.6 207.8,93 219.2,104.4 219.2,104.4 219.1,104.5 219,104.6 			"/>
			<polygon class="st4" points="304,180.4 288.3,180.4 272.5,180.4 256.8,180.4 241.1,180.4 241.1,164.6 241.1,148.9 241.1,133.1 
				241.1,117.4 256.8,117.4 272.5,117.4 288.3,117.4 304,117.4 304,133.1 304,148.9 304,164.6 			"/>
			<polygon class="st3" points="241.2,180.5 241.1,180.4 241.1,180.4 241,180.3 240.9,180.2 256.7,164.5 272.4,148.7 288.2,133 
				303.9,117.2 304,117.3 304,117.4 304.1,117.4 304.1,117.5 288.4,133.2 272.7,149 256.9,164.7 			"/>
			<polygon class="st3" points="303.9,180.5 288.2,164.7 272.4,149 256.7,133.2 240.9,117.5 241,117.4 241.1,117.4 241.1,117.3 
				241.2,117.2 256.9,133 272.7,148.7 288.4,164.5 304.1,180.2 304.1,180.3 304,180.4 304,180.4 			"/>
			<path class="st7" d="M301.3,105.7h-58.8c-0.7,0-1.4-0.3-1.9-0.8c-0.2-0.3-0.4-0.5-0.6-0.9c-0.1-0.3-0.2-0.7-0.2-1.1V59.6
				c0-0.4,0.1-0.7,0.2-1.1c0.1-0.3,0.3-0.6,0.6-0.9c0.5-0.5,1.2-0.8,1.9-0.8h58.8c0.4,0,0.7,0.1,1.1,0.2c0.3,0.1,0.6,0.3,0.9,0.6
				c0.3,0.3,0.5,0.6,0.6,0.9c0.1,0.3,0.2,0.7,0.2,1.1v43.3c0,0.4-0.1,0.7-0.2,1.1c-0.1,0.3-0.3,0.6-0.6,0.9
				c-0.2,0.3-0.5,0.5-0.9,0.6C302,105.6,301.7,105.7,301.3,105.7z"/>
			<polygon class="st3" points="283.3,81.2 281,79.9 278.6,78.6 276.3,77.2 274,75.8 271.6,74.5 269.3,73.2 267,71.8 264.6,70.5 
				264.6,73.2 264.6,75.8 264.6,78.6 264.6,81.2 264.6,83.9 264.6,86.6 264.6,89.3 264.6,92 267,90.7 269.3,89.3 271.6,88 274,86.6 
				276.3,85.3 278.6,83.9 281,82.6 			"/>
			<polygon class="st5" points="125.3,172.9 149.4,172.9 173.5,172.9 197.6,172.9 221.7,172.9 221.7,160.9 221.7,148.9 221.7,136.8 
				221.7,124.8 197.6,124.8 173.5,124.8 149.4,124.8 125.3,124.8 125.3,136.8 125.3,148.9 125.3,160.9 			"/>
			<polygon class="st4" points="221.7,164.1 216.3,161.3 211,158.5 205.7,155.6 200.4,152.8 191.9,156.5 183.5,160.1 175.1,163.7 
				166.7,167.4 161.9,166.1 157.1,164.8 152.3,163.5 147.4,162.2 141.9,163.9 136.4,165.7 130.9,167.4 125.3,169.1 125.3,170.1 
				125.3,171 125.3,172 125.3,172.9 149.4,172.9 173.5,172.9 197.6,172.9 221.7,172.9 221.7,170.7 221.7,168.5 221.7,166.3 			"/>
			<path class="st4" d="M192.6,137.2c0,3.1,2.5,5.6,5.6,5.6c0,0,0,0,0,0c1.5,0,2.9-0.6,4-1.6c1.1-1.1,1.7-2.5,1.6-4
				c0-1.5-0.6-2.9-1.6-4c-1.6-1.6-4.1-2.1-6.2-1.2c-1.3,0.6-2.4,1.7-3,3C192.8,135.7,192.6,136.5,192.6,137.2z"/>
			<path class="st4" d="M158.7,140.1h19.8c0.1-0.3,0.2-0.6,0.3-0.9c0-0.3,0-0.6-0.1-0.9c-0.1-0.6-0.5-1.2-1-1.5
				c-0.2-0.2-0.5-0.3-0.8-0.4c-0.3-0.1-0.6-0.1-0.9-0.1c-0.3,0-0.6,0.1-0.9,0.2c-0.3,0.1-0.5,0.3-0.7,0.5c0.1-0.3,0.1-0.7,0-1
				c-0.1-0.3-0.2-0.6-0.3-0.9c-0.3-0.6-0.7-1.1-1.3-1.5c-0.3-0.2-0.5-0.3-0.9-0.5c-0.3-0.1-0.6-0.2-0.9-0.2c-0.3-0.1-0.7-0.1-1-0.1
				c-0.3,0-0.7,0-1,0c-0.3,0-0.5,0.1-0.8,0.1c-0.3,0.1-0.5,0.1-0.8,0.2c-0.3,0.1-0.5,0.2-0.7,0.3c-0.2,0.1-0.5,0.3-0.7,0.4
				c-0.2,0.2-0.4,0.4-0.6,0.6c-0.2,0.2-0.3,0.5-0.4,0.7c-0.1,0.2-0.2,0.5-0.2,0.8c0,0.3,0,0.5,0,0.8c-0.3-0.2-0.5-0.4-0.9-0.6
				c-0.3-0.2-0.7-0.3-1-0.3c-0.3-0.1-0.7-0.1-1-0.1c-0.7,0-1.4,0.3-1.9,0.6c-0.3,0.2-0.5,0.4-0.8,0.7c-0.2,0.3-0.4,0.5-0.6,0.9
				c-0.2,0.3-0.3,0.7-0.3,1c0,0.1,0,0.2,0,0.2c0,0.1,0,0.2,0,0.3c0,0.1,0,0.2,0.1,0.3C158.5,140,158.6,140,158.7,140.1z"/>
			<path class="st4" d="M168.1,140.4L168.1,140.4z"/>
			<path class="st4" d="M175.8,136h1h0.1h0.3l0,0l0,0h0.1h0.1h0.1h0.1h0.1l0,0l0,0l0,0l0,0l0,0l0,0l0,0l0,0l0,0l0,0l0,0l0,0l0.1,0.1
				h0.1l0.1,0.1v0.1l0,0l0.1,0.1v0.1l0,0l0,0l0,0l0,0l0,0l0,0l0,0l0,0l0,0v0.2l0,0l0,0l0,0l0,0l0,0l0,0l0,0l0,0l0,0l0,0l0,0l0,0l0,0
				l0,0l0,0l0,0l0,0l0,0l0,0l0,0l-0.1-0.1l0,0l-0.1-0.1l0,0h-0.1h-0.1h-0.1h-0.1h-0.1h-0.1h-0.1h-0.1l0,0l0,0l0,0l0,0h-0.1h-0.1H177
				H177h-0.1h-0.1h-0.1h-0.1h-0.1h-0.1h-0.1h-0.1h-0.1h-0.1h-0.7L175.8,136z"/>
			<path class="st4" d="M164.7,136L164.7,136v-0.1l0,0l0,0l0,0l0,0l0,0l0,0l0,0v-0.4v-0.1v-0.1v-0.1l0,0v-0.1V135l0,0l0,0v-0.1v-0.1
				v-0.1v-0.1l0.1-0.1l0.1-0.1c0,0,0.1-0.1,0.1-0.1l0.1-0.1l0,0l0,0l0,0l0,0l0,0l0,0l0,0l0,0l0,0l0,0l0,0l0,0l0,0l0,0l0,0l0,0l0,0
				l0.1-0.1h0.1l0.1-0.1h0.1l0,0l0,0l0,0l0,0l0,0l0,0l0,0l0,0l0.1-0.1l0.1-0.1l0.1-0.1l0.1-0.1h0.1h0.1h0.1h0.1h0.1h0.1h0.1h0.1h0.1
				h0.1h0.1h0.1h0.4h-0.1h-0.1H167h-0.5l-0.1,0.1h-0.1L166,134l-0.1,0.1l-0.1,0.1l-0.1,0.1l-0.1,0.1l-0.1,0.1l0,0l0,0l0,0l0,0l0,0
				l0,0l0,0l0,0h-0.1l-0.1,0.1h-0.1l-0.1,0.1l-0.1,0.1l-0.1,0.1c0,0-0.1,0.1-0.1,0.1l-0.1,0.1l-0.1,0.1l-0.1,0.1l-0.1,0.1l-0.1,0.1
				l-0.1,0.1l-0.1,0.1c0,0,0,0.1-0.1,0.1c0,0,0,0.1-0.1,0.1v0.1v0.1l0,0v0.1l0,0l0,0l0,0l0,0l0,0v0.3c0,0,0,0,0,0.1v0.2L164.7,136z"
				/>
			<path class="st4" d="M139.5,149.9h0.4h0.4h22.1c0.2-0.2,0.3-0.4,0.4-0.7c0.1-0.3,0.2-0.5,0.2-0.8c0-0.3,0-0.5-0.1-0.8
				c-0.1-0.3-0.2-0.5-0.4-0.7c-0.2-0.2-0.4-0.4-0.7-0.5c-0.3-0.1-0.5-0.2-0.8-0.2c-0.3,0-0.6,0-0.8,0.1c-0.3,0.1-0.5,0.2-0.7,0.4
				c0-0.2,0-0.5-0.1-0.8c0-0.2-0.1-0.5-0.2-0.7c-0.1-0.2-0.2-0.5-0.3-0.7c-0.1-0.2-0.2-0.4-0.4-0.6c-0.1-0.2-0.3-0.4-0.5-0.6
				c-0.2-0.2-0.4-0.3-0.6-0.4c-0.2-0.1-0.5-0.2-0.7-0.3c-0.2,0-0.5,0-0.7,0c-0.2,0-0.5,0.1-0.7,0.2c-0.2,0.1-0.4,0.3-0.6,0.4
				c-0.2,0.2-0.3,0.4-0.4,0.6c-0.1,0.2-0.2,0.5-0.1,0.7c-0.2-0.5-0.5-1-0.9-1.4c-0.4-0.4-0.8-0.8-1.2-1.2c-0.5-0.3-0.9-0.6-1.5-0.8
				c-0.5-0.2-1-0.4-1.6-0.6c-0.5-0.2-1-0.3-1.6-0.4c-0.5-0.1-1.1-0.2-1.6-0.2c-0.5,0-1.1,0-1.6,0c-0.5,0-1.1,0.1-1.6,0.3
				c-0.5,0.1-1,0.3-1.5,0.6c-0.5,0.2-0.9,0.5-1.3,0.9c-0.4,0.3-0.8,0.7-1.1,1.2c-0.3,0.4-0.6,0.9-0.7,1.4c-0.2,0.5-0.3,1-0.3,1.6
				c0,0.5,0,1.1,0.1,1.6c0.1,0.5,0.3,1,0.6,1.4C138.7,149.2,139.1,149.6,139.5,149.9z"/>
			<path class="st4" d="M140.3,150.4L140.3,150.4z"/>
			<path class="st4" d="M145.9,139.6h2.1h0.2h0.2h0.2l0.2,0.1h0.2l0.2,0.1l0.2,0.1l0.2,0.1l0.2,0.1l0.2,0.1l0.2,0.1l0.2,0.1
				c0.1,0,0.1,0.1,0.2,0.1l0.2,0.1l0.2,0.1l0.2,0.1l0.2,0.1l0.2,0.1l0.2,0.1l0.2,0.1l0.2,0.1l0.1,0.1l0.2,0.1l0.1,0.1l0.1,0.1
				l0.1,0.1l0.1,0.1l0.1,0.1l0.1,0.1l0.1,0.1l0.1,0.1c0,0,0.1,0.1,0.1,0.1l0.1,0.1l0.1,0.1l0.1,0.1l0.1,0.1c0,0,0,0.1,0,0.1
				c0,0,0,0,0,0.1v0.1v0.1v0.1l0,0v-0.1l0,0v-0.1l0,0c0,0,0,0,0-0.1c0,0,0,0,0-0.1l-0.1-0.1l-0.1-0.1l-0.1-0.1l-0.1-0.1l-0.1-0.1
				c0,0-0.1-0.1-0.1-0.1l-0.1-0.1l-0.1-0.1l-0.1-0.1l-0.1-0.1l-0.1-0.1l-0.1-0.1l-0.1-0.1l-0.1-0.1l-0.2-0.1c0,0-0.1-0.1-0.2-0.1
				l0,0l0,0l0,0l0,0l0,0l0,0l0,0l0,0l0,0l0,0l0,0l0,0l0,0l0,0h-0.1l0,0l0,0l0,0l0,0l0,0l0,0l-0.2-0.1l-0.2-0.1l-0.2-0.1l-0.2-0.1
				l-0.2-0.1l-0.2-0.1l-0.2-0.1l-0.2-0.1l-0.2-0.1l-0.2-0.1l-0.2-0.1l-0.2-0.1h-0.2h-0.2h-0.2h-0.2h-0.4h-0.1h-0.1h-0.1H148h-0.1
				h-0.1h-0.1h-0.1h-0.9L145.9,139.6z"/>
			<path class="st6" d="M321.8,37.2H97.1V26.9c0-1.7,0.3-3.5,1-5.1c0.7-1.6,1.6-3,2.8-4.1c1.2-1.2,2.6-2.1,4.2-2.8
				c1.6-0.7,3.3-1,5.1-1h198.6c7.2,0,13.1,5.8,13.1,13.1V37.2z"/>
			<path class="st8" d="M117.7,26.2c0,0.7-0.1,1.4-0.4,2.1c-0.3,0.6-0.7,1.2-1.2,1.7c-0.5,0.5-1.1,0.9-1.7,1.1
				c-1.3,0.6-2.9,0.6-4.2,0c-0.6-0.3-1.2-0.7-1.7-1.1c-0.5-0.5-0.9-1.1-1.2-1.7c-0.6-1.3-0.6-2.9,0-4.2c0.3-0.6,0.7-1.2,1.2-1.7
				c0.5-0.5,1.1-0.9,1.7-1.1c1.3-0.6,2.9-0.6,4.2,0c0.6,0.3,1.2,0.7,1.7,1.1c0.5,0.5,0.9,1.1,1.2,1.7
				C117.5,24.7,117.7,25.5,117.7,26.2z"/>
			<path class="st8" d="M132.1,26.2c0,0.7-0.1,1.4-0.4,2.1c-0.3,0.6-0.7,1.2-1.2,1.7c-0.5,0.5-1.1,0.9-1.7,1.1
				c-1.3,0.6-2.9,0.6-4.2,0c-0.6-0.3-1.2-0.7-1.7-1.1c-0.5-0.5-0.9-1.1-1.2-1.7c-0.6-1.3-0.6-2.9,0-4.2c0.3-0.6,0.7-1.2,1.2-1.7
				c0.5-0.5,1.1-0.9,1.7-1.1c1.3-0.6,2.9-0.6,4.2,0c0.6,0.3,1.2,0.7,1.7,1.1c0.5,0.5,0.9,1.1,1.2,1.7
				C131.9,24.7,132,25.5,132.1,26.2z"/>
			<path class="st8" d="M146.4,26.2c0,0.7-0.1,1.4-0.4,2.1c-0.5,1.3-1.6,2.3-2.9,2.9c-1.3,0.6-2.9,0.6-4.2,0
				c-1.3-0.5-2.3-1.6-2.9-2.9c-0.6-1.3-0.6-2.9,0-4.2c0.5-1.3,1.6-2.3,2.9-2.9c1.3-0.6,2.9-0.6,4.2,0c1.3,0.5,2.3,1.6,2.9,2.9
				C146.3,24.7,146.4,25.4,146.4,26.2z"/>
			<polygon class="st8" points="303.4,30.8 302.9,30.3 302.3,29.7 301.7,29.2 301.2,28.6 303.3,26.5 305.4,24.4 307.5,22.3 
				309.6,20.2 310.2,20.8 310.7,21.3 311.3,21.9 311.8,22.4 309.7,24.5 307.6,26.6 305.5,28.7 			"/>
			<polygon class="st8" points="309.6,30.8 307.5,28.7 305.4,26.6 303.3,24.5 301.2,22.4 301.7,21.9 302.3,21.3 302.9,20.8 
				303.4,20.2 305.5,22.3 307.6,24.4 309.7,26.5 311.8,28.6 311.3,29.2 310.7,29.7 310.2,30.3 			"/>
			<path class="st2" d="M456.3,150.4h-42.8c-3.5,0-6.3-2.8-6.3-6.3v-42.8c0-3.5,2.8-6.3,6.3-6.3h42.8c3.5,0,6.3,2.8,6.3,6.3v42.8
				C462.6,147.6,459.8,150.4,456.3,150.4z"/>
			<path class="st4" d="M456.3,151.1h-42.8c-3.9,0-7-3.1-7-7v-42.8c0-3.9,3.1-7,7-7h42.8c3.9,0,7,3.1,7,7v42.8
				C463.3,147.9,460.2,151.1,456.3,151.1L456.3,151.1z M413.5,95.6c-3.1,0-5.6,2.5-5.6,5.7v42.8c0,3.1,2.5,5.6,5.6,5.7h42.8
				c3.1,0,5.7-2.5,5.7-5.7v-42.8c0-3.1-2.5-5.7-5.7-5.7H413.5z"/>
			<path class="st2" d="M380.1,150.4h-42.8c-3.5,0-6.3-2.8-6.3-6.3v-42.8c0-3.5,2.8-6.3,6.3-6.3h42.8c3.5,0,6.3,2.8,6.3,6.3v42.8
				C386.4,147.5,383.6,150.4,380.1,150.4z"/>
			<path class="st4" d="M380.1,151.1h-42.8c-3.9,0-7-3.1-7-7v-42.8c0-3.9,3.1-7,7-7h42.8c3.9,0,7,3.1,7,7v42.8
				C387.1,147.9,384,151.1,380.1,151.1L380.1,151.1z M337.3,95.6c-3.1,0-5.6,2.5-5.7,5.7v42.8c0,3.1,2.5,5.6,5.7,5.7h42.8
				c3.1,0,5.6-2.5,5.6-5.7v-42.8c0-3.1-2.5-5.6-5.6-5.7H337.3z"/>
			<path class="st2" d="M456.3,224.8h-42.8c-3.5,0-6.3-2.8-6.3-6.3v-42.8c0-3.5,2.8-6.3,6.3-6.3h42.8c3.5,0,6.3,2.8,6.3,6.3v42.8
				C462.6,222,459.8,224.8,456.3,224.8z"/>
			<path class="st4" d="M456.3,225.5h-42.8c-3.9,0-7-3.1-7-7v-42.8c0-3.9,3.1-7,7-7h42.8c3.9,0,7,3.1,7,7v42.8
				C463.3,222.3,460.2,225.5,456.3,225.5L456.3,225.5z M413.5,170c-3.1,0-5.6,2.5-5.6,5.7v42.8c0,3.1,2.5,5.6,5.6,5.7h42.8
				c3.1,0,5.7-2.5,5.7-5.7v-42.8c0-3.1-2.5-5.7-5.7-5.7L413.5,170z"/>
			<path class="st2" d="M380.1,224.8h-42.8c-3.5,0-6.3-2.8-6.3-6.3v-42.8c0-3.5,2.8-6.3,6.3-6.3h42.8c3.5,0,6.3,2.8,6.3,6.3v42.8
				C386.4,222,383.6,224.8,380.1,224.8z"/>
			<path class="st4" d="M380.1,225.5h-42.8c-3.9,0-7-3.1-7-7v-42.8c0-3.9,3.1-7,7-7h42.8c3.9,0,7,3.1,7,7v42.8
				C387.1,222.3,384,225.5,380.1,225.5L380.1,225.5z M337.3,170c-3.1,0-5.6,2.5-5.7,5.7v42.8c0,3.1,2.5,5.6,5.7,5.7h42.8
				c3.1,0,5.6-2.5,5.6-5.7v-42.8c0-3.1-2.5-5.6-5.6-5.7L337.3,170z"/>
			<path class="st2" d="M456.3,299.2h-42.8c-3.5,0-6.3-2.8-6.3-6.3v-42.8c0-3.5,2.8-6.3,6.3-6.3h42.8c3.5,0,6.3,2.8,6.3,6.3v42.8
				C462.6,296.4,459.8,299.2,456.3,299.2z"/>
			<path class="st4" d="M456.3,299.9h-42.8c-3.9,0-7-3.1-7-7v-42.8c0-3.9,3.1-7,7-7h42.8c3.9,0,7,3.1,7,7v42.8
				C463.3,296.7,460.2,299.9,456.3,299.9z M413.5,244.4c-3.1,0-5.6,2.5-5.6,5.7v42.8c0,3.1,2.5,5.6,5.6,5.6h42.8
				c3.1,0,5.6-2.5,5.7-5.6v-42.8c0-3.1-2.5-5.7-5.7-5.7L413.5,244.4z"/>
			<path class="st2" d="M380.1,299.2h-42.8c-3.5,0-6.3-2.8-6.3-6.3v-42.8c0-3.5,2.8-6.3,6.3-6.3h42.8c3.5,0,6.3,2.8,6.3,6.3v42.8
				C386.4,296.4,383.6,299.2,380.1,299.2z"/>
			<path class="st4" d="M380.1,299.9h-42.8c-3.9,0-7-3.1-7-7v-42.8c0-3.9,3.1-7,7-7h42.8c3.9,0,7,3.1,7,7v42.8
				C387.1,296.7,384,299.9,380.1,299.9z M337.3,244.4c-3.1,0-5.6,2.5-5.7,5.7v42.8c0,3.1,2.5,5.6,5.7,5.6h42.8
				c3.1,0,5.6-2.5,5.6-5.6v-42.8c0-3.1-2.5-5.6-5.6-5.7L337.3,244.4z"/>
			<polygon class="st3" points="446.2,197.1 436.7,191.6 427.1,186 427.1,197.1 427.1,208.1 436.7,202.6 			"/>
			<path class="st5" d="M378.7,181.6v30.9c0,1-0.4,1.9-1.1,2.6c-0.7,0.7-1.6,1.1-2.6,1.1h-32.6c-1,0-1.9-0.4-2.6-1.1
				c-0.7-0.7-1.1-1.6-1.1-2.6v-30.9c0-1,0.4-1.9,1.1-2.6c0.7-0.7,1.6-1.1,2.6-1.1h32.6c1,0,1.9,0.4,2.6,1.1
				C378.3,179.7,378.7,180.7,378.7,181.6z"/>
			<path class="st4" d="M378.5,198.2v14.3c0,2-1.6,3.6-3.6,3.6h-32.3c-2,0-3.6-1.6-3.6-3.6v-4.3l3.4-3.4l3.3-3.4l4.5,4.5l4.5,4.5
				l9-9l9-9l2.9,2.9L378.5,198.2z"/>
			<path class="st4" d="M363.6,196.6c0,2-1.7,3.7-3.7,3.7c-2,0-3.7-1.7-3.7-3.7c0-2,1.7-3.7,3.7-3.7c1,0,1.9,0.4,2.6,1.1
				C363.3,194.7,363.6,195.6,363.6,196.6z"/>
			<path class="st6" d="M340.9,110.2c0.3-0.4,0.6-0.7,1-0.9c0.4-0.2,0.9-0.3,1.4-0.3h30.8c0.5,0,1.1,0.1,1.5,0.4
				c0.4,0.3,0.8,0.6,1,1.1l0,0c0.1,0.2,0.1,0.3,0.2,0.5c0,0.2,0.1,0.4,0.1,0.5v17.7c0,0.2,0,0.4-0.1,0.6c0,0.2-0.1,0.3-0.2,0.5
				c-0.2,0.4-0.6,0.8-1,1.1c-0.5,0.3-1,0.4-1.5,0.4h-30.8c-0.5,0-1.1-0.1-1.5-0.4c-0.4-0.3-0.8-0.6-1-1.1c-0.1-0.2-0.1-0.3-0.2-0.5
				c-0.1-0.2-0.1-0.4-0.1-0.6v-17.7c0-0.2,0-0.5,0.1-0.7C340.7,110.6,340.8,110.4,340.9,110.2z"/>
			<polygon class="st3" points="343.9,128.6 351.5,122.6 359.2,116.6 366.4,122.6 373.5,128.6 374,128.1 374.4,127.6 366.8,121.3 
				359.2,114.9 351.1,121.3 343.1,127.6 343.5,128.1 			"/>
			<path class="st6" d="M343.5,112.6l6.3,5.2l6.3,5.2c0.6,0.5,1.5,0.8,2.3,0.8c0.8,0,1.7-0.3,2.3-0.8l6.7-5.3l6.7-5.3"/>
			<path class="st3" d="M358.3,124.5c0.5,0,0.9-0.1,1.4-0.2c0.5-0.1,0.9-0.4,1.3-0.7l6.7-5.3l6.7-5.3l-0.4-0.5l-0.4-0.5l-6.7,5.3
				l-6.7,5.3c-1.1,0.9-2.7,0.9-3.8-0.1l-6.2-5.2l-6.3-5.2l-0.4,0.5l-0.4,0.5l6.3,5.2l6.3,5.2c0.4,0.3,0.8,0.6,1.3,0.8
				C357.4,124.4,357.8,124.5,358.3,124.5z"/>
			<path class="st6" d="M452.1,122.7c0,4.4-1.6,8.5-4.6,11.7c-6.5,6.9-17.3,7.3-24.3,0.9c-3.5-3.3-5.5-7.8-5.5-12.6
				c0.2-9.5,8.1-17,17.6-16.8C444.5,106.1,451.9,113.5,452.1,122.7z"/>
			<path class="st3" d="M440.8,117.4c0,3.2-2.6,5.9-5.8,5.9c-3.2,0-5.9-2.6-5.9-5.8c0-3.2,2.6-5.9,5.8-5.9c1.5,0,3,0.6,4.1,1.7
				C440.1,114.4,440.7,115.9,440.8,117.4z"/>
			<path class="st3" d="M447.5,134.4c-6.5,6.9-17.3,7.3-24.3,0.9c-0.3-0.3-0.6-0.6-0.9-0.9c1.7-5.5,6.8-9.3,12.6-9.3
				C440.7,125.1,445.8,128.9,447.5,134.4L447.5,134.4z"/>
			<path class="st6" d="M374.2,269.3c-0.4-2.1-1.3-4.2-2.5-6l1.2-1.3l1.2-1.2l-2-2l-2-2l-1.3,1.2l-1.2,1.2c-0.9-0.6-1.9-1.1-2.9-1.5
				c-1-0.4-2.1-0.7-3.1-0.9v-3.4h-5.7v3.4c-1.1,0.2-2.2,0.5-3.2,0.9c-1,0.4-1.9,0.9-2.8,1.6l-1.3-1.2l-1.3-1.2l-2,2l-2,2l1.2,1.2
				l1.2,1.2c-0.6,0.9-1.1,1.9-1.5,2.9c-0.4,1-0.7,2.1-0.9,3.1h-3.6v6.1h3.7c0.2,1.1,0.5,2.1,0.9,3.1c0.4,1,0.9,2,1.6,2.9l-1.2,1.2
				l-1.3,1.3l2,2l2,2l1.2-1.2l1.2-1.2c0.9,0.6,1.9,1.1,2.9,1.6c1,0.4,2.1,0.7,3.1,0.9v3.4h5.7V288c1.1-0.2,2.2-0.5,3.3-1
				c1-0.4,1.9-0.9,2.8-1.5l1.3,1.2l1.3,1.2l2-2l2-2l-1.1-1.3l-1.2-1.2c0.6-0.9,1.1-1.9,1.5-2.9c0.4-1,0.7-2.1,0.9-3.1h3.6v-6.1
				L374.2,269.3L374.2,269.3z"/>
			<path class="st3" d="M367.7,272.4c0,4.9-4,8.9-8.9,8.9c-4.9,0-8.9-4-8.9-8.9s4-8.9,8.9-8.9c2.4,0,4.6,0.9,6.3,2.6
				C366.7,267.7,367.7,270,367.7,272.4z"/>
			<path class="st5" d="M358.7,282c-5.3,0-9.6-4.3-9.6-9.6c0-5.3,4.3-9.6,9.6-9.6c5.3,0,9.6,4.3,9.6,9.6c0,2.5-1,5-2.8,6.8
				C363.7,281,361.3,282,358.7,282z M358.7,264.1c-4.6,0-8.3,3.7-8.3,8.3s3.7,8.3,8.3,8.3c4.6,0,8.3-3.7,8.3-8.3
				c0-2.2-0.9-4.3-2.4-5.9C363,265,360.9,264.1,358.7,264.1L358.7,264.1z"/>
			<path class="st5" d="M363.3,272.4c0,2.5-2.1,4.5-4.6,4.5s-4.5-2.1-4.5-4.6s2.1-4.5,4.6-4.5c1.2,0,2.3,0.5,3.2,1.3
				C362.8,270,363.3,271.2,363.3,272.4z"/>
			<path class="st3" d="M429.9,255.6c0.4,0.1,0.8,0.4,1,0.8c0.2,0.3,0.4,0.7,0.5,1.1c0.2,0.8,0.4,1.7,0.6,2.5s0.4,1.7,0.5,2.5
				c0,0.1,0,0.3,0,0.4s0,0.3,0,0.4c0,0.4-0.1,0.7-0.3,1c-0.2,0.3-0.5,0.5-0.9,0.6l-0.8,0.3l-0.8,0.3c-0.2,0.1-0.4,0.2-0.6,0.4
				c-0.2,0.2-0.3,0.4-0.3,0.6c-0.1,0.3-0.1,0.7-0.1,1c0,0.3,0.1,0.7,0.2,1c0.6,1.8,1.5,3.6,2.6,5.2c1.1,1.6,2.4,3,3.9,4.3
				c0.3,0.3,0.7,0.5,1,0.7c0.3,0.2,0.7,0.4,1,0.6c0.2,0.1,0.5,0.2,0.7,0.2c0.3,0,0.5,0,0.8,0c0.2,0,0.4-0.1,0.5-0.1
				c0.2-0.1,0.3-0.2,0.4-0.4l0.5-0.6l0.5-0.6c0.2-0.4,0.6-0.7,1-0.8c0.4-0.1,0.9-0.1,1.3,0.1l0.8,0.4l0.8,0.4l1.4,0.8l1.4,0.8
				l0.4,0.2l0.4,0.2c0.3,0.2,0.6,0.4,0.8,0.7c0.2,0.3,0.4,0.6,0.4,1c0,0.1,0,0.2,0,0.3v0.3L449,283c-0.1,0.2-0.2,0.5-0.3,0.7
				c-0.5,1-1.2,1.8-2.1,2.5c-0.9,0.6-1.9,1-3,1.2c-0.2,0-0.5,0.1-0.7,0.1h-0.7l-0.5-0.1l-0.5-0.1l-0.6-0.2l-0.6-0.2
				c-1.1-0.4-2.1-0.9-3-1.5c-0.9-0.6-1.8-1.3-2.6-2.1c-1-0.9-2-1.8-2.8-2.8c-0.9-1-1.7-2-2.5-3.1c-1-1.3-1.9-2.7-2.8-4
				c-0.9-1.4-1.6-2.9-2.3-4.4c-0.4-0.8-0.7-1.7-0.9-2.6c-0.2-0.9-0.4-1.8-0.5-2.7c0-0.3,0-0.5,0-0.8s0-0.5,0-0.8s0.1-0.4,0.1-0.5
				s0.1-0.4,0.1-0.5l0-0.1c0,0,0-0.1,0-0.1c0.3-1.2,0.9-2.3,1.8-3.2c0.9-0.9,2-1.5,3.3-1.8c0.3-0.1,0.6-0.1,0.9-0.1
				c0.3,0,0.6,0,0.9-0.1l0.3,0.1L429.9,255.6z"/>
			<path class="st9" d="M552.2,411.8c-4.7,1.6-9.6,2.6-14.5,2.9c2.6,4.4,3.5,9.6,2.4,14.6l5.7-1.9c1.5-0.5,3.1-1,4.6-1.4
				c0.8-0.2,1.6-0.4,2.4-0.6c0.7-0.1,1.4-0.2,2.1-0.5c0.6-0.4,0.3-0.8,0.1-1.3c-0.3-0.7-0.6-1.4-0.8-2.1c-0.5-1.5-0.9-2.9-1.2-4.5
				C552.4,415.2,552.2,413.5,552.2,411.8z"/>
			<path class="st9" d="M545.9,427.6c1.5-0.5,3.1-1,4.6-1.4c0.8-0.2,1.6-0.4,2.4-0.6l0.6-0.1c0.5,0,1.1-0.2,1.6-0.4
				c0.7-0.5,0.5-1.1,0.2-1.5l-0.1-0.1c-0.3-0.7-0.6-1.4-0.8-2.1c-0.5-1.4-0.9-2.9-1.2-4.4c-0.3-1.7-0.5-3.4-0.6-5.1v-0.4l-0.4,0.1
				c-4.7,1.6-9.5,2.6-14.4,2.9h-0.5l0.2,0.4c2.6,4.3,3.4,9.4,2.4,14.4l-0.1,0.5L545.9,427.6z M551.9,412.2c0.2,3.2,0.8,6.3,1.9,9.3
				c0.3,0.7,0.5,1.4,0.8,2.1l0.1,0.1c0.2,0.5,0.2,0.6,0,0.8c-0.4,0.2-0.9,0.3-1.3,0.3l-0.7,0.1c-0.8,0.2-1.5,0.4-2.4,0.6
				c-1.6,0.4-3.1,1-4.6,1.4l-5.2,1.7c0.9-4.7,0.1-9.6-2.3-13.8C542.9,414.6,547.5,413.7,551.9,412.2z"/>
			<path class="st10" d="M555.9,423.1c1.4,2.6,2.1,5.6,2.3,8.5c-3.9,5.7-9.1,10.3-15.2,13.3c-6,2.9-12.6,4.2-19.3,3.8
				c-1.2-0.1-2.5-0.3-3.1-1.3c-0.4-0.9-0.3-1.9,0.4-2.7c0.7-0.7,1.4-1.3,2.3-1.8c7.5-4.7,13.2-11.6,16.4-19.8
				C545.8,424.5,555.9,423.1,555.9,423.1z"/>
			<path class="st11" d="M558.1,430.4c-0.2,1.6-1,3.1-2.2,4.1c-3.8,4.3-8.3,7.8-13.4,10.4c-5.5,2.7-11.7,3.9-17.8,3.4
				c-0.8-0.1-1.5-0.2-2.2-0.5c-1.1-0.5-1.7-1.1-1.7-2c0-0.3,0.3-0.9,0.2-1c-0.5,0.1-0.8,0.8-0.9,1.1c-0.2,1.1-0.2,2.2,0,3.3
				c0.3,2,2,3.5,4,3.7c1.3,0.2,2.6,0.3,3.9,0.3c2.6,0.1,5.2-0.1,7.8-0.5c2.7-0.5,5.3-1.3,7.9-2.3c2.6-1,5-2.6,7-4.5l8.7-8.1
				C559.6,435.2,559.1,432.7,558.1,430.4z"/>
			<path class="st9" d="M586.5,419.5c-4.9,0.5-9.9,0.3-14.8-0.6c1.4,4.9,0.9,10.1-1.4,14.7l6-0.5c1.6-0.1,3.2-0.2,4.8-0.3
				c0.8,0,1.6,0,2.5,0c0.7,0.1,1.4,0.1,2.1,0c0.6-0.2,0.5-0.7,0.4-1.2c-0.1-0.8-0.2-1.5-0.3-2.3c-0.1-1.5-0.2-3.1-0.1-4.6
				C585.8,422.9,586.1,421.2,586.5,419.5z"/>
			<path class="st9" d="M576.3,433.4c1.6-0.1,3.2-0.2,4.8-0.3c0.9,0,1.7,0,2.4,0c0.2,0,0.4,0,0.6,0c0.5,0.1,1.1,0.1,1.6-0.1
				c0.8-0.3,0.7-0.9,0.6-1.4v-0.2c-0.1-0.7-0.2-1.5-0.3-2.2c-0.1-1.5-0.1-3,0-4.6c0.1-1.7,0.3-3.4,0.7-5.1l0.1-0.4h-0.4
				c-4.9,0.5-9.9,0.3-14.7-0.6l-0.5-0.1l0.1,0.5c1.4,4.8,0.9,10-1.4,14.5l-0.2,0.5L576.3,433.4z M586.1,419.8
				c-0.3,1.6-0.6,3.2-0.7,4.8c-0.1,1.6-0.1,3.1,0,4.7c0.1,0.8,0.2,1.5,0.3,2.3v0.2c0.1,0.5,0.1,0.6-0.2,0.8c-0.4,0.1-0.9,0.1-1.3,0
				c-0.2,0-0.4,0-0.7,0c-0.8,0-1.6,0-2.5,0c-1.6,0.1-3.3,0.2-4.9,0.3l-5.5,0.4c2.1-4.4,2.6-9.3,1.3-14
				C576.7,419.9,581.4,420.2,586.1,419.8z"/>
			<path class="st10" d="M537.9,418.9c5.6-0.9,11.6-1.9,17.2-2.7c-0.5-19.1,0.3-38.3,2.6-57.2c0.6-5.3,1.4-10.5,2.2-15.5
				c0.1-0.5,0.2-1,0.2-1.4c2.2-15.6,0.5-32.1,2.2-48.8c1-10.4,2.7-20.9,3.5-31.6c0.3-1.9,0.2-3.9-0.4-5.8c-0.2-0.5-1.3-1.1-2.7-1.6
				c-1.9-0.6-3.8-1.1-5.7-1.4c-2.4-0.4-4.5-0.4-5.1,0.1c-5.5,3.8-21.9,40.3-23.2,78.2C526,369,535.2,406.9,537.9,418.9z"/>
			<path class="st10" d="M598.2,256.6c1.3,10.3,1.2,20.8-0.2,31.1c-1.6,10.2-6,23.6-4.5,51.2c0.8,27.8-4.7,65.9-5,84.2
				c-13.8-0.6-19.4-0.9-19.4-0.9s-5.7-61.6-7.2-70.1c-6-29.7-4.5-60-4.9-68.1c-0.8-5.3,4.3-34.1,11-38.2
				C576.4,250.1,588.6,256.1,598.2,256.6z"/>
			<path class="st11" d="M550.7,284c0.4,8.1-1.1,38.4,4.9,68.1c0.4,2.3,1.1,4.6,2.1,6.8c0.6-5.3,1.4-10.5,2.2-15.5
				c0.1-0.5,0.2-1,0.2-1.4c-3.9-26.2-2.8-50.8-3.2-58c-0.6-3.8,1.9-19.6,5.8-29.8l0.2-0.4c0.8-2.1,1.8-4,3-5.8
				c-1.5-0.7-2.9-1.5-4.2-2.1c-1.6,1-3.2,3.4-4.5,6.6c0,0.1-0.1,0.2-0.1,0.3C552.8,262.8,550.1,280,550.7,284z"/>
			<path class="st11" d="M589,286.7c0-0.3,1.1-9.1,1.1-9.4c1.5,0.3,3.1,0.4,4.6,0.2c1.4,0,2.8-0.1,4.3-0.2c-0.1,0.9-0.8,9.5-1,10.4
				c-1.6,10.2-6,23.6-4.5,51.2c0.2,5.8-1.7,39.9-2.1,41.5c-6.5-5.4-6.6-34.4-6.8-42.5C583,310.2,587.4,296.9,589,286.7z"/>
			<path class="st10" d="M587.2,431.4c0.6,2.9,0.6,5.9,0,8.8c-5.2,4.6-11.5,7.8-18.2,9.4c-6.5,1.4-13.3,1.2-19.7-0.8
				c-1.1-0.4-2.4-0.9-2.7-2c-0.2-1,0.2-2,1.1-2.5c0.8-0.5,1.7-1,2.7-1.2c8.4-2.8,15.8-8.2,21-15.4
				C577,430.3,587.2,431.4,587.2,431.4z"/>
			<path class="st11" d="M587.4,438.9c-0.6,1.5-1.8,2.7-3.2,3.5c-4.8,3.3-10.1,5.6-15.7,6.9c-6,1.3-12.3,1-18.1-0.9
				c-0.7-0.2-1.4-0.6-2-1c-0.8-0.5-1.3-1.4-1.1-2.3c0.1-0.3,0.5-0.8,0.5-0.9c-0.5,0-1,0.6-1.2,0.9c-0.5,1-0.7,2.1-0.8,3.2
				c-0.2,2,1,3.9,2.9,4.5c1.2,0.5,2.5,0.8,3.7,1.2c2.5,0.7,5.1,1.1,7.7,1.3c2.8,0.1,5.5,0,8.2-0.4c2.8-0.4,5.5-1.3,7.9-2.8l10.5-5.8
				C587.5,443.9,587.8,441.4,587.4,438.9z"/>
			<path class="st9" d="M580.1,183.9c-1.7,3.3-4.6,4.9-8.3,5.7c-3.8,0.8-7.7,0.4-11.3-1.1c-3.5-1.6-6.7-3.8-9.5-6.6
				c1.1-1.1,2-2.2,2.8-3.5c1.3-2,2.3-4.2,3-6.5c0.1-0.3,0.2-0.5,0.2-0.8c0.4-1.4,0.7-2.8,1-4.3c0.1-0.7,0.2-1.4,0.3-2
				c0.2-1.9,0.2-3.8,0-5.7c6.7,3.4,12.2,3.4,19.3,1c0.3,1.8,0.6,3.6,0.8,5.4c0,0.3,0.1,0.6,0.1,1c0.2,2,0.4,4.1,0.6,6.1
				c0.3,3.3,0.5,6.5,0.8,9.6C580,182.8,580.1,183.3,580.1,183.9z"/>
			<path class="st12" d="M578.6,166.5c-1,1.6-2.4,2.9-4,3.9c-1.5,0.7-3.2,1.2-4.8,1.4c-4.3,0.6-8.6,0.7-12.9,0.3
				c0.1-0.3,0.2-0.5,0.2-0.8c0.4-1.4,0.7-2.8,1-4.3c5.1,0.8,10.4,0.8,15.5,0c1.7-0.2,3.3-0.6,4.8-1.4l0.2-0.1
				C578.5,165.8,578.6,166.1,578.6,166.5z"/>
			<path class="st9" d="M525.5,197.6c-5.4,1.6-14.8,4.4-21.5,7.1c-2.5-7.4-17.6-37.8-17.8-38.2c-3.2,2.3-6.6,4.3-10.2,5.8
				c0.3,0.7,8.7,34.9,12.4,44.7c0.7,1.8,1.7,3.8,3.6,4.2c1,1.2,32.8,1.4,43.9-4.1C531.6,210.5,530.6,203.6,525.5,197.6z"/>
			<path class="st9" d="M510.2,222c6.9-0.4,19.5-1.4,25.8-4.6l0.3-0.1l-0.2-0.3c-1.7-2.7-3.1-5.6-4.2-8.6c-1.7-3.9-3.2-7.5-6.2-11
				l-0.1-0.2l-0.2,0.1c-9.1,2.6-16.3,5-21.2,7c-1.2-3.2-5.1-12.3-17-36.5c-0.4-0.8-0.7-1.4-0.7-1.4l-0.2-0.4l-0.3,0.2
				c-3.1,2.3-6.5,4.2-10.1,5.7l-0.3,0.1l0.1,0.3c0.1,0.2,0.6,2.3,1.3,5.2c2.7,10.4,8.2,32,11,39.6c0.7,1.8,1.7,3.9,3.8,4.4
				c0.8,0.5,4.7,0.7,9.5,0.7C504.2,222.2,507.3,222.1,510.2,222z M486,166.9l0.5,1.1c12.3,25,16.1,33.8,17.1,36.8l0.1,0.3l0.3-0.1
				c4.9-2,12-4.4,21.3-7c2.8,3.4,4.3,7,6,10.7c1.1,2.9,2.5,5.7,4.1,8.4c-11.1,5.2-41.8,5-43.2,4l-0.1-0.1H492
				c-1.8-0.4-2.8-2.3-3.4-4c-2.8-7.5-8.4-29.1-11-39.5c-0.7-2.9-1.1-4.4-1.3-5C479.8,170.9,483,169.1,486,166.9z"/>
			<path class="st13" d="M606.8,201.4c-0.1,3.4-0.4,6.7-1.1,10c-0.3,1.8-2.1,1.9-2.5,3.7c-1.1,5.1-1,11.7-2.2,16.8
				c-0.7,3.2-0.9,13.9-0.9,21.9c0,5.2,0,25.1,0,25.1c-11.5,1.2-23,1.9-34.6,2c-13.2,0.1-24.5-3.7-26.7-3.7c0,0-0.2-35.3-0.4-39.1
				c-0.1-1-0.1-2-0.2-3c-0.4-4.2-0.4-8.4,0-12.6c0.2-1.5,0.4-3,0.6-4.5c-2.1,1.8-4.3,3.3-6.7,4.6c-2.4,1.3-4.8,2.5-7.3,3.5
				c-3.4-10.3-6.4-22.5-6.4-31.4c8.5-9.7,36.6-19.3,36.6-19.3c0.7,2.4,1.5,4.8,3.5,6.6c1.6,1.4,3.5,2.2,5.6,2.6
				c3.4,0.4,6.8-0.2,9.9-1.6c3.7-2.1,5.3-7,5.3-7s9.6,4.1,13.7,6.2c2.4,1.2,4.8,2.6,7,4.2c2.5,1.7,4.6,3,5.7,5.9
				S606.8,198.3,606.8,201.4z"/>
			<path class="st14" d="M602.4,223.1c0.1,5.4-2.2,12-1.3,17.1c-10.4-2.9-21.1-2.9-31.8-1.1c-4.8,0.8-9.7,2.1-14.3,0.6
				c-0.9-0.3-2-1-1.7-1.9c0.2-0.5,0.7-0.8,1.2-1c4.4-2,9-3.2,13.8-3.8c8.1-0.9,16.5,0.3,24.2-2.4c0.6-0.1,1.1-0.5,1.5-0.9
				c0.6-1-0.2-2.2-1.1-3.1c-3.4-3.5-7.1-6.6-10.3-10.2c-1.8-2.1-3.4-4.3-4.7-6.8c-0.3-0.5-1.5-2.4-0.4-2.6c0.5-0.1,2.4,2.1,2.8,2.5
				c4,3.5,8.2,6.7,12.7,9.6C596,220.7,599.1,222.1,602.4,223.1z"/>
			<path class="st15" d="M549.8,207.4c-5.1,10.8-7.6,16.3-11.4,27.6c-0.4-4.2-0.4-8.4,0-12.6c0.2-1.5,0.4-3,0.6-4.5
				c-2.1,1.8-4.3,3.3-6.7,4.6c0.1-0.5,0.4-0.8,1.1-1.4C538,217.7,547.9,210,549.8,207.4z"/>
			<path class="st9" d="M642.6,226.6c0.3-1.5-19.7-21.6-31.3-25.9c-2.4,7.4-5.4,10.7-6.8,18.3c4.8,2.8,13.3,7.7,19.8,10.6
				c-6,10.2-11.4,20.7-16.2,31.4l0,0c-1.3,2.3-2.4,4.7-3.4,7.1c1.1,1.3,2,2.7,2.8,4.2c0.8,1.1,1.5,2.3,2,3.5l8.6-9.9
				c0,0,17.8-24.2,23.5-34.1C642.7,230.2,643.6,228.2,642.6,226.6z"/>
			<path class="st9" d="M618.4,266.2c0.2-0.2,17.8-24.3,23.5-34.1c1-1.7,1.9-3.8,1-5.6c-0.3-1.4-5.9-7.2-11.3-12
				c-4.7-4.2-13.5-11.6-20.2-14l-0.3-0.1l-0.1,0.3c-0.9,2.6-1.9,5.1-3.1,7.6c-1.8,3.4-3,7-3.8,10.7v0.2l0.2,0.1
				c8.1,4.8,14.7,8.3,19.5,10.5c-5.9,10.1-11.2,20.5-16,31.2c-1.3,2.3-2.4,4.7-3.4,7.1l-0.1,0.2l0.1,0.1c1.1,1.3,2,2.7,2.7,4.2l0,0
				c0.8,1.1,1.4,2.2,2,3.4l0.2,0.5L618.4,266.2z M605.1,268.2c1-2.4,2.1-4.7,3.3-6.9c4.8-10.8,10.2-21.2,16.2-31.4l0.2-0.3l-0.3-0.1
				c-4.8-2.2-11.4-5.7-19.6-10.5c0.7-3.6,2-7.1,3.7-10.4c1.2-2.4,2.2-4.8,3-7.4c6.5,2.5,15,9.6,19.5,13.6c6.7,6,11.2,11.1,11.3,11.8
				v0.1l0,0.1c0.9,1.5,0,3.5-0.9,5c-5.7,9.8-23.3,33.8-23.5,34.1l-8.3,9.6c-0.5-1.1-1.1-2.1-1.8-3.1
				C607.1,270.8,606.2,269.4,605.1,268.2L605.1,268.2z"/>
			<path class="st13" d="M584.3,205.6c6,7.4,15.2,15.9,23.6,20.6c10-6.4,14.1-8.6,19.7-18.8c-7.5-7.4-15.3-13.1-24.2-19"/>
			<path class="st16" d="M553.2,126.8c-2.4,3-3.3,6.9-2.5,10.6c0.1,0.4,1.3,3.9,1.3,3.9s0.7-2.9,1-3.1c2.4-1.3,4.4-3.2,6-5.4
				c1.5-2.2,2.8-4.6,3.8-7.1c0.3-0.7,0.5-1.4,0.7-2.1c0.1-0.7,0.2-2-0.8-2c-0.9,0.1-1.8,0.2-2.7,0.5c-1.8,0.5-3.4,1.4-4.8,2.5
				C554.4,125.3,553.7,126,553.2,126.8z"/>
			<path class="st9" d="M589,148.9c-4.2,13.7-14.9,24-25.4,21.1s-14.4-17-11.1-30.9c3.6-15.3,16.5-22.8,27.1-19.9
				S593.1,135.2,589,148.9z"/>
			<path class="st17" d="M552,141.3c0,0-5.6-17.3,10.9-18.7c2.6,3.7,5.4,7.3,9.2,10c2.2,1.5,4.6,2.8,6.2,4.8
				c1.4,2.1,2.2,4.5,2.3,7.1c0.4,4.3,0,8.7-1.2,12.8c0.7-0.9,1.8-1.4,2.9-1.3c1.2,0.1,2.3,0.4,3.3,0.8c-0.8,1.2-2,2.1-2.9,3.2
				c-1.1,1.5-1.9,3.2-2.3,5c2.1-0.2,4.2-0.9,6-2c1.7-1.1,3.4-2.4,4.9-3.7c3.3-2.8,4.6-7.1,8-9.6s7.5-5.1,8.2-9.1
				c0.5-4-0.5-8-2.9-11.2c-0.8-1.1-1.8-2-2.8-2.9c-1-0.7-2-1.5-2.9-2.3c-2.4-2.7-2.1-6.9-4.2-9.8c-2-2.7-5.7-3.6-9.1-4
				s-7-0.4-10.1-1.9c-2.2-1.1-4-2.8-6.2-4c-3-1.5-6.4-1.9-9.6-1c-2.5,0.7-4.7,2.1-6.3,4c-1.3,1.6-1.8,4.4-2,6.3
				c-0.3,2.6,0.4,5.3-0.3,7.9c-0.6,2.1-2,3.9-2.9,6C546.1,132.5,547.7,137.9,552,141.3z"/>
			<path class="st12" d="M580.6,144.5c0.2,2.5,0.2,4.9-0.1,7.4c0-1.7-0.2-3.5-0.5-5.2c-0.5-2.4-1.2-5.1-2.9-6.9s-4.4-3.1-6.7-4.3
				c-4-2.2-10.7-9.7-10.7-9.7c1-1.2,2.2-2.2,3.5-3.1l0,0c2.6,3.7,5.3,7.3,9,9.9c2.1,1.5,4.5,2.8,6.1,4.8
				C579.7,139.5,580.5,142,580.6,144.5z"/>
			<path class="st17" d="M551.8,117.1c-2.8-5.6-0.6-12.4,4.9-15.2c1.5-0.7,3.1-1.2,4.8-1.2c2.8-0.1,5.6,0.9,7.8,2.8
				c2.1,1.8,3.8,3.9,5,6.3l-0.7,0.3c-1.2-2.3-2.8-4.4-4.8-6.1c-2-1.7-4.6-2.6-7.3-2.6c-3.7,0.3-7,2.3-8.9,5.5
				c-1.5,3.1-1.6,6.8-0.1,9.9L551.8,117.1z"/>
			<path class="st17" d="M596.9,148.5l-0.7-0.2c0.8-2.3,3.7-3.1,5.3-3.4c0.5-0.1,1-0.1,1.5-0.2c1.5-0.1,3-0.5,4.4-1.2
				c1.5-1,2.6-2.5,2.9-4.3c0.3-1.8,0.2-3.6-0.2-5.4c-0.4-1.9-1.1-4.5-3.1-6c-1.3-0.8-2.7-1.4-4.1-1.7l-1.2-0.3
				c-2.6-0.8-4.2-1.9-4.8-3.4c-0.4-1.3-0.5-2.7-0.2-4c0.2-0.9,0.2-1.9,0.1-2.8c-0.4-2.4-2.7-4-4.6-4.7c-2.3-0.7-4.8-0.9-7.2-0.8
				h-8.7v-0.7h8.7c2.5-0.1,5,0.2,7.5,0.9c2.1,0.8,4.6,2.5,5.1,5.2c0.1,1,0.1,2-0.1,3c-0.3,1.2-0.2,2.4,0.2,3.6c0.6,1.3,2,2.3,4.4,3
				l1.2,0.3c1.6,0.3,3,0.9,4.4,1.8c2.2,1.7,3,4.5,3.4,6.5c0.4,1.9,0.5,3.8,0.2,5.7c-0.4,2-1.5,3.7-3.2,4.8c-1.5,0.7-3.1,1.2-4.7,1.3
				c-0.5,0.1-1,0.1-1.4,0.2C600.1,145.9,597.6,146.6,596.9,148.5z"/>
			<path class="st7" d="M546.1,237.6c-0.6,0.7-1.1,1.4-1.6,2.2c-1.2,1.8-1.9,3.9-2.1,6c0,0.7,0,1.3,0.2,2c0.3,1.5,1.3,2.9,2.7,3.6
				c30.1,17.2,57.8,38.5,82.1,63.2c0.2,0.2,0.3,0.3,0.5,0.4c1.1,0.9,2.4,1.3,3.8,1.3h0.6c2.7-0.4,5.1-1.6,7.1-3.5l0.1-0.1
				c0.6-0.6,1.2-1.2,1.8-1.9c2.1-2.3,3.4-5.2,3.8-8.3c0-0.4,0-0.7,0-1.1c-0.1-1.1-0.5-2.1-1.2-3c-0.4-0.5-1-0.9-1.6-1.3
				C612,280,584.4,258.8,560,234c-1.3-1.3-3.2-2-5-1.8C552.2,232.5,548.8,234.4,546.1,237.6z"/>
			<path class="st18" d="M543.6,250c0.4,0.5,0.9,0.9,1.5,1.2c30.1,17.2,57.8,38.4,82.1,63.2c1.1,1.2,2.7,1.8,4.3,1.7
				c-25.1-24.9-53-46.8-83.2-65.1c-0.2,0-0.4,0-0.7,0C546.2,251.1,544.8,250.8,543.6,250z"/>
			<path class="st2" d="M548.2,251c30.2,18.3,58.2,40.2,83.2,65.1c2.4,0,5.2-1.3,7.7-3.5c-27.2-22.4-55.3-44.2-83.9-65l-0.1,0.1
				C553.3,249.4,550.9,250.6,548.2,251z"/>
			<path class="st3" d="M557,245.8c-0.5,0.6-1.1,1.2-1.7,1.7c28.6,20.9,56.7,42.6,83.9,65c0.7-0.6,1.3-1.3,1.9-1.9
				c2.7-3.2,4-6.7,3.7-9.4c-30.4-18-58.6-39.3-84.2-63.6C560.3,240.7,559,243.5,557,245.8z"/>
			<path class="st4" d="M559.5,233.5c0.6,0.9,1,2,1.1,3.2c0,0.4,0,0.7,0,1.1c25.6,24.3,53.8,45.6,84.2,63.6
				c-0.1-1.8-1.2-3.4-2.8-4.3c-30.1-17.2-57.8-38.4-82.1-63.2L559.5,233.5z"/>
			<path class="st7" d="M642,297.9L642,297.9c-0.2-0.1-0.3-0.2-0.5-0.3c-15.3-8.7-30-18.6-43.9-29.4c-12.8-9.8-25-20.5-36.4-31.9
				c0,0.1,0,0.1,0,0.2c0,0.4,0,0.8,0,1.2c-0.3,3.2-1.6,6.1-3.7,8.5c-0.5,0.6-1.1,1.3-1.8,1.8l-0.1,0.1c-2.1,1.9-4.6,3.2-7.4,3.6
				l-0.7,0.1c14.5,8.4,28.5,17.8,41.8,28.2c13.6,10.4,26.4,21.7,38.4,33.9l0.4,0.4c1,0.8,2.2,1.2,3.5,1.2c2.2,0,4.8-1.2,7.2-3.3
				c0.6-0.6,1.2-1.2,1.8-1.8c2.5-2.9,3.8-6.2,3.5-8.8C643.9,300,643.2,298.7,642,297.9 M642.5,297.3c1.3,0.9,2.1,2.3,2.3,3.9
				c0.3,2.7-1,6.2-3.7,9.4c-0.6,0.7-1.2,1.3-1.9,1.9c-2.5,2.3-5.3,3.5-7.7,3.5c-1.4,0-2.8-0.4-3.8-1.3l-0.4-0.4
				c-24.4-24.7-52-46-82.1-63.2c-0.2-0.1-0.3-0.2-0.5-0.3c-0.4-0.2-0.7-0.5-1-0.9c1.2,0.8,2.6,1.1,4,1c0.2,0,0.4,0,0.7,0
				c2.6-0.4,5.1-1.6,7-3.4l0.1-0.1c0.6-0.5,1.2-1.1,1.7-1.7c2-2.2,3.3-5.1,3.6-8.1c0-0.4,0-0.7,0-1.1c-0.1-1.1-0.4-2.2-1.1-3.2
				l0.4,0.4c11.9,12.2,24.7,23.5,38.2,33.9c13.9,10.8,28.6,20.6,43.9,29.3C642.2,297.1,642.4,297.2,642.5,297.3L642.5,297.3z"/>
			<path class="st7" d="M545.9,261.2c-0.4,0.9-0.8,1.8-1.1,2.8c-0.8,2.2-1,4.6-0.7,6.9c0.1,0.7,0.3,1.4,0.6,2
				c0.6,1.4,1.9,2.5,3.4,2.8c32.4,7.6,63.4,20.3,91.8,37.7c0.2,0.1,0.4,0.2,0.6,0.3c1.2,0.5,2.6,0.6,3.9,0.1
				c0.2-0.1,0.4-0.2,0.6-0.2c2.5-1.4,4.6-3.5,6-6l0.1-0.1c0.5-0.8,0.9-1.7,1.3-2.5c1.7-3.7,2.3-7.3,1.9-9.9
				c-0.1-0.4-0.1-0.7-0.2-1.1c-0.3-1.1-0.9-2-1.8-2.7c-0.5-0.4-1.1-0.7-1.8-0.8c-32.4-7.6-63.4-20.3-91.8-37.6
				c-1.6-0.9-3.6-1-5.2-0.1C550.6,253.8,547.8,257,545.9,261.2z"/>
			<path class="st4" d="M546.1,274.9c0.5,0.3,1.1,0.6,1.7,0.7c32.4,7.6,63.4,20.3,91.8,37.7c1.3,0.8,3,1,4.5,0.4
				c-29.1-17.3-60.5-30.6-93.2-39.3l-0.6,0.3C548.9,275.2,547.5,275.3,546.1,274.9z"/>
			<path class="st2" d="M550.8,274.4c32.7,8.7,64.1,22,93.2,39.3c2.2-0.8,4.7-3.1,6.6-6.3c-30.7-14.1-62.1-27.1-93.8-39l-0.1,0.1
				C555.3,270.9,553.2,273,550.8,274.4z"/>
			<path class="st3" d="M558.1,266c-0.4,0.8-0.8,1.6-1.3,2.4c31.7,11.9,63.1,25,93.8,39c0.5-0.9,1-1.7,1.4-2.6
				c1.9-4.2,2.5-8.3,1.6-11c-32.8-8.3-64.3-20.9-93.9-37.4C560.1,259.7,559.5,263,558.1,266z"/>
			<path class="st2" d="M557.8,252.3c0.8,0.8,1.4,1.8,1.7,2.9c0.1,0.4,0.2,0.7,0.2,1.1c29.5,16.5,61.1,29.1,93.9,37.4
				c-0.4-1.7-1.8-3.1-3.6-3.5c-32.4-7.6-63.4-20.3-91.8-37.7C558.1,252.5,558,252.4,557.8,252.3z"/>
			<path class="st7" d="M650.3,291.2L650.3,291.2c-0.2-0.1-0.3-0.1-0.5-0.1c-16.5-3.9-32.6-9.1-48.2-15.6
				c-14.3-5.9-28.2-12.8-41.5-20.8l0.1,0.2c0.1,0.4,0.2,0.8,0.3,1.2c0.4,3.5-0.3,7-1.8,10.1c-0.4,0.9-0.8,1.7-1.3,2.5l-0.1,0.1
				c-1.5,2.6-3.7,4.8-6.3,6.3c-0.2,0.1-0.5,0.2-0.7,0.3c15.7,3.8,31,8.8,45.9,15c15.2,6.2,29.9,13.6,43.9,22.2
				c0.1,0.1,0.3,0.2,0.4,0.2c1.1,0.5,2.4,0.5,3.5,0.1c2.1-0.8,4.4-2.9,6.2-5.9c0.5-0.8,0.9-1.7,1.3-2.5c1.8-3.9,2.3-7.7,1.5-10.3
				C652.7,292.8,651.7,291.7,650.3,291.2 M650.7,290.4c1.5,0.5,2.6,1.8,3,3.3c0.8,2.7,0.3,6.8-1.6,11c-0.4,0.9-0.9,1.8-1.4,2.6
				c-2,3.2-4.4,5.5-6.6,6.3c-1.3,0.5-2.7,0.5-4-0.1c-0.2-0.1-0.3-0.2-0.5-0.3c-28.4-17.3-59.4-30.1-91.8-37.7
				c-0.2,0-0.4-0.1-0.6-0.2c-0.4-0.1-0.8-0.3-1.1-0.6c1.3,0.4,2.7,0.3,4-0.3c0.2-0.1,0.4-0.2,0.6-0.3c2.5-1.4,4.6-3.4,6-5.9l0.1-0.1
				c0.5-0.8,0.9-1.6,1.3-2.4c1.5-3,2.1-6.3,1.7-9.6c-0.1-0.4-0.1-0.8-0.2-1.1c-0.3-1.1-0.9-2.1-1.7-2.9c0.2,0.1,0.3,0.2,0.5,0.3
				c13.9,8.6,28.5,16,43.6,22.2c15.6,6.5,31.7,11.7,48.2,15.5L650.7,290.4L650.7,290.4z"/>
			<path class="st9" d="M607.8,261.7c-1,1.2-5.7,2.7-7.2,3.2c-1.5,0.4-2.9,1.2-4,2.4c0.7,0,1.3,0,2,0.2c0.6,0.2,1.2,0.6,1.5,1.2
				c0.4,1-0.3,2.2-1.1,3c-2.8,3.4-5.6,6.8-8.5,10.2c-0.4,0.4-0.7,0.9-0.9,1.4c-0.2,0.5,0,1.1,0.4,1.5c0.8,0.4,1.8,0.1,2.2-0.7
				l8.1-7.9c0.1,0.6,0,1.2-0.4,1.7c-1.1,1.6-2.8,2.9-3.5,4.7l-3.4,5c-0.3,0.4,0,1.4,0.5,1.4c0.5,0,1-0.2,1.3-0.6
				c0.6-0.5,1.2-1.1,1.8-1.7l5.7-6.1c-1.3,2.5-2.5,5-3.8,7.5c-0.2,0.2-0.2,0.5-0.2,0.8c0.2,0.3,0.6,0.5,0.9,0.4
				c0.3-0.1,0.6-0.3,0.9-0.6c1.7-1.7,3.1-3.7,4-6l0.4,0.2c0.1,0.4-0.3,0.8-0.6,1.1s-0.6,0.8-0.3,1.1c0.2,0.2,0.5,0.3,0.8,0.2
				c0.3-0.1,0.5-0.3,0.7-0.5c3.3-3.3,5.9-7.1,7.9-11.3c0.5-1.5,1.3-3,2.3-4.3"/>
			<path class="st9" d="M599.1,289.6c-0.4,0-0.8-0.2-1-0.6c-0.1-0.3,0-0.7,0.2-1l2.8-5.6l-4.2,4.5c-0.6,0.6-1.2,1.2-1.8,1.7
				c-0.4,0.4-1,0.6-1.6,0.6c-0.4-0.1-0.7-0.3-0.8-0.7c-0.2-0.4-0.2-0.9,0.1-1.2l3.4-4.9c0.5-1.1,1.2-2,2.1-2.9
				c0.5-0.6,1-1.2,1.5-1.8c0.2-0.2,0.3-0.5,0.4-0.8l-7.5,7.4c-0.4,0.5-0.9,0.9-1.5,1c-0.4,0.1-0.8,0-1.1-0.2
				c-0.5-0.4-0.8-1.2-0.5-1.8c0.2-0.6,0.5-1.1,0.9-1.5l8.4-10.2c0.7-0.9,1.4-1.9,1-2.8c-0.3-0.5-0.7-0.9-1.3-1
				c-0.6-0.2-1.2-0.2-1.9-0.2h-0.7l0.4-0.5c1.2-1.2,2.6-2,4.2-2.5l0.5-0.1c1.7-0.6,5.7-1.9,6.6-2.9l0.5,0.4c-0.8,1-3.8,2.1-6.8,3.1
				l-0.5,0.2c-1.3,0.4-2.4,1-3.4,1.8c0.5,0,0.9,0.1,1.3,0.2c0.7,0.2,1.3,0.7,1.7,1.4c0.5,1.2-0.3,2.4-1.1,3.3l-8.5,10.2
				c-0.4,0.4-0.6,0.8-0.8,1.3c-0.1,0.4,0,0.9,0.3,1.2c0.2,0.1,0.4,0.2,0.7,0.1c0.5-0.1,0.9-0.4,1.2-0.8l0,0l8.5-8.3l0.2,0.5
				c0.1,0.7,0,1.4-0.5,1.9c-0.5,0.7-1,1.3-1.5,1.9c-0.8,0.8-1.5,1.7-2,2.8v0l-3.4,5c-0.1,0.2-0.1,0.5,0,0.7c0.1,0.2,0.2,0.3,0.3,0.3
				c0.4,0,0.8-0.2,1.1-0.5c0.6-0.5,1.2-1.1,1.7-1.7l7.2-7.7l-4.8,9.4c-0.1,0.2-0.2,0.4-0.1,0.5s0.3,0.2,0.5,0.2
				c0.3-0.1,0.5-0.3,0.7-0.5c1.7-1.7,3.1-3.6,4-5.9l0.1-0.3l0.8,0.4v0.1c0.1,0.5-0.3,1-0.6,1.3l0,0c-0.2,0.2-0.4,0.6-0.3,0.8
				c0.1,0.1,0.3,0.1,0.5,0.1c0.2-0.1,0.4-0.3,0.6-0.5c3.2-3.3,5.9-7.1,7.8-11.2c0.2-0.4,0.3-0.8,0.5-1.1c0.4-1.2,1-2.3,1.8-3.2
				l0.5,0.4c-0.7,0.9-1.3,2-1.7,3.1c-0.2,0.4-0.3,0.8-0.5,1.2c-2,4.2-4.6,8-7.9,11.3c-0.2,0.3-0.5,0.5-0.8,0.6
				c-0.4,0.2-0.9,0.1-1.2-0.3c0-0.1-0.1-0.1-0.1-0.2c-0.8,1.4-1.8,2.6-3,3.8c-0.3,0.3-0.6,0.5-1,0.7
				C599.3,289.6,599.2,289.6,599.1,289.6z"/>
			<path class="st9" d="M476.8,175.2c-0.2-0.9-0.8-2.6-0.9-3.6c-2.3-7.1-6.9-13.3-13.1-17.6c-1.6-1.1-3-2.3-4.4-3.6
				c-0.8-0.6-1.4-1.4-1.7-2.3c-0.1-0.5,0.2-1,0.7-1.1c0.2-0.1,0.5,0,0.7,0.1c2,1.1,3.6,2.7,5.5,4c0.5,0.4,1.1-0.2,0.7-0.7
				c-0.8-0.9-1.7-1.7-2.7-2.4c-1.5-1.3-2.8-2.6-4-4.1c-0.6-0.8-1.1-1.7-1.4-2.6c-0.1-0.5,0.3-1.1,0.8-1.1c0.3,0,0.6,0,0.9,0.3
				c2.7,2.8,5.6,5.4,8.6,7.9c0.2,0.2,0.5,0.2,0.7,0c0.1-0.2,0.2-0.4,0.1-0.6c-0.5-1-1.2-1.8-2-2.5c-1.3-1.1-2.5-2.6-3.8-3.7
				c-1.3-1.1-2.4-2.3-3.3-3.7c-0.6-1,0.6-2.1,1.6-1.4c2.1,1.4,3.8,3.6,5.7,5.6c1.6,1.7,2.6,2.7,4.9,4.8c0.1,0.1,0.3,0.3,0.5,0.4
				c0.2,0.2,0.6,0.2,0.7-0.1c0.1-0.2,0.2-0.4,0.1-0.6c-1.1-1.8-3.1-4.1-4-5.4c-1-1.3-1.9-2.7-2.5-4.3c-0.2-0.7,0.2-1.3,0.9-1.5
				c0.3-0.1,0.7,0,1,0.2c1,0.7,1.9,1.6,2.6,2.6l9.9,13.3c0.8,1,1.9,2.2,3.2,1.7c0.4-0.2,0.7-0.5,0.9-0.8c0.4-0.8,0.6-1.7,0.6-2.6
				c0.3-1.6,1-3,2-4.3c0.3-0.4,0.9-0.4,1.2-0.1c0.2,0.1,0.3,0.3,0.3,0.6c-0.1,3.1-0.7,6.2-1.8,9.1c-1,2.3-1.4,4.8-1.3,7.3
				c0.3,1.1,0.6,2.1,1,3.1l0,0c0.5,1.6,1.6,3.3,2.2,4.9"/>
			<path class="st9" d="M476.5,175.3c-0.1-0.4-0.3-1-0.4-1.6s-0.4-1.4-0.5-1.9c-2.3-7.1-6.9-13.2-13-17.4c-1.6-1.1-3-2.3-4.4-3.6
				l-0.2-0.2c-0.7-0.6-1.3-1.4-1.6-2.3c-0.1-0.5,0-1,0.4-1.3c0.4-0.3,1-0.3,1.4-0.1c1.2,0.7,2.4,1.6,3.5,2.5c0.7,0.5,1.4,1.1,2,1.6
				c0.1,0.1,0.2,0.1,0.3,0c0.1-0.1,0.1-0.2,0-0.3c0,0,0,0,0,0c-0.6-0.7-1.3-1.3-2-1.9l-0.6-0.5c-1.5-1.3-2.8-2.7-4-4.2
				c-0.7-0.8-1.1-1.8-1.4-2.8c-0.1-0.6,0.1-1.1,0.6-1.4c0.5-0.3,1.2-0.2,1.6,0.2c2.7,2.7,5.6,5.4,8.6,7.9c0.1,0.1,0.2,0.1,0.3,0
				c0.1-0.1,0.1-0.2,0-0.2c-0.5-0.9-1.2-1.8-2-2.4c-0.7-0.6-1.3-1.2-2-1.9s-1.2-1.2-1.9-1.8c-1.3-1.1-2.4-2.4-3.3-3.8
				c-0.4-0.5-0.2-1.3,0.3-1.7c0.5-0.5,1.2-0.5,1.8-0.1c1.7,1.2,3.2,2.6,4.5,4.2c0.4,0.5,0.8,0.9,1.2,1.4c1.6,1.7,2.6,2.7,4.9,4.7
				c0.2,0.2,0.3,0.3,0.5,0.4c0.1,0.1,0.2,0.1,0.3,0c0.1-0.1,0.1-0.2,0-0.3c0,0,0,0,0,0c-0.6-1-1.6-2.2-2.5-3.3
				c-0.6-0.8-1.2-1.5-1.5-2.1l-0.4-0.6c-0.9-1.1-1.6-2.4-2.1-3.7c-0.2-0.6,0.1-1.2,0.6-1.6c0.5-0.4,1.2-0.4,1.8-0.1
				c1.1,0.7,2,1.6,2.7,2.7l9.9,13.3c1,1.4,2,1.9,2.8,1.6c0.3-0.1,0.6-0.4,0.8-0.7c0.3-0.5,0.4-1.1,0.5-1.7c0-0.3,0.1-0.6,0.1-0.8
				c0.3-1.6,1-3.1,2-4.4c0.3-0.4,0.8-0.5,1.3-0.4c0.5,0.1,0.8,0.5,0.8,1c0,3.2-0.7,6.3-1.8,9.2c-1,2.3-1.4,4.7-1.2,7.2
				c0.1,0.6,0.3,1.2,0.5,1.8c0.1,0.4,0.3,0.9,0.4,1.3l0,0c0.3,0.9,0.7,1.8,1.2,2.7c0.4,0.7,0.7,1.5,1,2.2l-0.6,0.2
				c-0.3-0.7-0.7-1.4-1-2.2c-0.4-0.7-0.8-1.5-1.1-2.3l0,0l-0.1-0.5c-0.1-0.4-0.3-0.9-0.4-1.3c-0.2-0.6-0.4-1.2-0.5-1.9
				c-0.2-2.5,0.3-5.1,1.3-7.4c1.1-2.9,1.7-5.9,1.8-9c0-0.2-0.2-0.4-0.4-0.5c-0.2-0.1-0.4,0-0.6,0.2c-0.9,1.2-1.6,2.6-1.9,4.1
				c-0.1,0.3-0.1,0.5-0.1,0.8c-0.1,0.7-0.2,1.3-0.5,1.9c-0.2,0.4-0.6,0.8-1.1,1c-1.1,0.4-2.3-0.2-3.5-1.8l-9.9-13.3
				c-0.7-1-1.5-1.9-2.5-2.5c-0.3-0.2-0.7-0.2-1,0c-0.3,0.2-0.5,0.6-0.3,1c0.5,1.3,1.1,2.5,2,3.6c0.1,0.2,0.3,0.4,0.4,0.6
				c0.4,0.5,0.9,1.2,1.5,2c0.9,1.1,1.8,2.3,2.5,3.4c0.2,0.3,0.1,0.8-0.2,1c-0.3,0.3-0.8,0.3-1.1,0c-0.2-0.2-0.4-0.3-0.6-0.4
				c-2.3-2.1-3.3-3.1-4.9-4.8c-0.4-0.4-0.8-0.9-1.2-1.4c-1.3-1.6-2.7-3-4.4-4.1c-0.3-0.2-0.7-0.2-1,0.1c-0.3,0.2-0.3,0.6-0.1,0.9
				c0.9,1.4,2,2.6,3.2,3.6c0.6,0.6,1.3,1.2,1.9,1.8s1.3,1.3,1.9,1.9c0.9,0.7,1.6,1.6,2.1,2.6c0.2,0.4,0.1,0.8-0.3,1
				c-0.3,0.3-0.8,0.3-1.1,0c-3-2.5-5.9-5.1-8.6-7.9c-0.2-0.2-0.5-0.3-0.8-0.1c-0.3,0.1-0.4,0.4-0.3,0.7c0.3,0.9,0.7,1.8,1.3,2.5
				c1.2,1.5,2.5,2.8,3.9,4.1l0.6,0.5c0.8,0.6,1.5,1.3,2.1,2c0.3,0.3,0.2,0.8-0.1,1.1c-0.3,0.3-0.8,0.3-1.1,0.1
				c-0.7-0.5-1.4-1-2.1-1.6c-1.1-0.9-2.2-1.7-3.4-2.4c-0.2-0.1-0.5-0.1-0.7,0.1c-0.2,0.1-0.3,0.4-0.2,0.6c0.3,0.8,0.8,1.5,1.4,2
				l0.2,0.2c1.3,1.3,2.8,2.5,4.3,3.6c6.2,4.3,10.9,10.5,13.2,17.7l0,0c0.1,0.5,0.3,1.2,0.5,1.9s0.4,1.2,0.5,1.7L476.5,175.3z"/>
			<path class="st4" d="M88,354c10.1,1.5,17.4,7.2,22.4,13.3c3.8,4.7,6.8,9.9,8.9,15.6l0.1,0.3l0.1,0.3h131.7l0.1-0.3
				c0-0.1,0.1-0.2,0.1-0.3c2.1-5.6,5.1-10.9,8.9-15.6c5-6.1,12.3-11.8,22.4-13.3c5.4-0.8,11-0.2,16.1,1.6c5.2,1.9,9.8,4.9,13.6,8.9
				c2.1,2.2,4,4.6,5.6,7.2c1.7,2.7,2.8,5.8,3.5,8.9h-33.8v38.9h33.8c-0.6,3.1-1.8,6.1-3.4,8.9c-1.6,2.6-3.4,5-5.5,7.2
				c-3.8,4-8.6,7.1-13.8,9c-5.2,1.9-10.8,2.4-16.3,1.6c-10-1.6-17.2-7.3-22.2-13.3c-3.8-4.7-6.7-9.9-8.8-15.5v0
				c-0.1-0.3-0.2-0.5-0.3-0.8c-0.1-0.3-0.2-0.6-0.3-0.9H120c-0.1,0.3-0.2,0.6-0.3,0.9s-0.2,0.6-0.3,0.8v0
				c-2.1,5.6-5.1,10.8-8.8,15.5c-5,6.1-12.2,11.8-22.2,13.3c-5.5,0.8-11.1,0.3-16.4-1.6c-5.2-1.9-10-5-13.8-9
				c-2.1-2.2-4-4.6-5.5-7.2c-1.7-2.7-2.8-5.7-3.4-8.9h33.8v-39H49.2c0.6-3.1,1.8-6.2,3.5-8.9c1.6-2.6,3.5-5,5.6-7.2
				c3.8-4,8.4-7,13.6-8.9C77,353.8,82.6,353.2,88,354z"/>
			<path class="st9" d="M182.5,240.9c-0.4,2.3-0.2,4.7,0.4,7c0.7,2.3,1.7,4.4,3.2,6.3c1.4,1.9,3.2,3.5,5.1,4.8
				c1.9,1.3,4.1,2.4,6.3,3.2c1.5,0.5,2.9,1,4.4,1.3c1.5,0.4,3.1,0.7,4.6,0.9c3,0.4,5.9-1.2,7-4c1.1-2.7,2.2-5.4,3.2-8.2
				c1-2.7,1.7-5.6,2.1-8.5c0.3-2.1,0.3-4.3,0.1-6.4c-0.2-2.1-0.8-4.2-1.7-6.2c-0.7-1.6-1.6-3.1-2.7-4.4c-1.1-1.3-2.4-2.5-3.9-3.4
				c-0.2-0.1-0.6-0.4-1.1-0.7c-0.3-0.2-0.7-0.4-1.1-0.3c-0.4,0.2-0.7,0.5-1,0.9c-0.3,0.4-0.6,0.8-0.8,1.1c-0.7,0.7-1.3,1.4-2,2
				s-1.4,1.3-2.1,1.9C196.6,233.5,189.8,237.8,182.5,240.9L182.5,240.9z"/>
			<path class="st9" d="M182.4,252.5h2.7l0.2,0.4l0.2,0.4c0.5,1.1,1.2,2.2,1.9,3.1c0.8,0.9,1.7,1.8,2.7,2.5c0.4,0.3,0.8,0.6,1.2,0.9
				c0.4,0.3,0.8,0.5,1.2,0.8l0.3,0.2l0.3,0.2c1.9,1.5,4.1,2.6,6.4,3c0.8,0.3,1.6,0.5,2.4,0.7c0.8,0.1,1.6,0.2,2.5,0.2
				c0.4,1.7,0.7,3.3,1.1,5l1.1,5c0.1,0.5,0.2,0.9,0.3,1.4c0.1,0.5,0.3,0.9,0.5,1.3c0.1,0.3,0.3,0.5,0.4,0.8c0.1,0.1,0.3,0.2,0.8,0.3
				c0.1,4.5,1,9.3,1.4,13.9s0.6,9.3-0.7,13.7l-0.1,0.3l-0.1,0.4c-4.4-3.6-8.8-7.3-13.2-10.9s-8.7-7.3-13.2-10.9
				c0.4-3,0.7-5.9,0.9-8.9s0.4-5.9,0.4-8.9s0-5.3-0.2-7.6C184,257.2,183.4,254.8,182.4,252.5z"/>
			<path class="st17" d="M231.7,260.9v-0.1v-0.1c-0.5-1.8-1.2-3.6-2.3-5.2c-1-1.6-2.2-3.1-3.3-4.6c-1.3-1.7-2.5-3.4-3.6-5.3
				c-1.1-1.8-1.8-3.8-2.2-5.9c-0.3-2.1-0.4-4.3-0.2-6.4c0.1-2.1,0-4.3-0.5-6.3c-0.6-2.3-1.8-4.3-3.5-6c-1.7-1.7-3.7-3-5.9-3.9
				c-3.8-1.6-7.8-2.3-11.9-2.2c-4.1,0.1-8.1,1-11.8,2.6c-2.6,1.1-4.9,2.8-6.7,5c-1.8,2.1-2.9,4.7-3.2,7.5c-0.2,2.5-1.2,4.8-2.7,6.7
				c-1.6,1.9-3.6,3.5-5.8,4.6c-1.6,0.8-3.4,1.2-5,1.9c-1.7,0.5-3.2,1.5-4.4,2.7c-1.5,1.7-2,4-2.6,6.2s-1.1,4.5-2.6,6.2
				c-1.1,1.1-2.3,2-3.7,2.7c-1.4,0.7-2.6,1.6-3.7,2.7c-0.8,1-1.4,2.2-1.6,3.5c-0.3,1.3-0.3,2.6-0.1,3.9c0.2,1.3,0.4,2.6,0.8,3.8
				c0.3,1.3,0.7,2.5,1,3.8c0.3,1.3,0.4,2.6,0.4,3.9c0,1.3-0.3,2.6-0.8,3.8c-0.7,1.6-1.5,3.2-2.1,4.8c-0.6,1.6-0.8,3.3-0.5,4.9
				c0.5,1.8,1.4,3.4,2.8,4.7c1.3,1.4,2.8,2.6,4,3.9l2.3,2.5l2.3,2.6c1.1,1.3,2.3,2.4,3.7,3.3c1.4,1,2.9,1.7,4.4,2.3
				c0.9,0.3,1.8,0.6,2.7,0.8c0.9,0.2,1.8,0.3,2.8,0.4c0.2,0,1.5,0,2.8,0s2.4-0.1,2.4-0.1c-0.9-2.3-1.9-4.5-2.9-6.7s-2.1-4.3-3.3-6.5
				c-1.3-2.3-2.3-4.7-3-7.2c-0.7-2.4-0.3-5,1-7.1c0.9-1.3,2.5-1.5,4.2-1.5s3.6,0,4.9-0.8c0.5-0.3,1-0.8,1.4-1.3
				c0.4-0.5,0.8-1,1.2-1.5c0.6-0.5,1.1-1,1.6-1.5c0.5-0.5,1-1.1,1.5-1.7c0.9-1.1,1.9-2,3.1-2.9c1.1-0.8,1.9-1.9,2.4-3.2
				c0.6-1.9,1-3.8,1.3-5.7c0.3-2,0.6-4.1,0.8-5.8c0.1-2.2,0-4.5-0.5-6.6c-0.4-2.2-0.7-4.4-0.9-6.7c0-0.6-0.2-1.6-0.2-2.6
				c-0.1-0.8,0.2-1.7,0.8-2.3c0.6-0.4,1.4-0.6,2.1-0.6c0.8,0,1.5-0.1,2.3-0.2c1.6-0.3,3.2-0.9,4.6-1.6c1.5-0.7,2.9-1.7,4.1-2.8
				c3.8-3.2,6.2-7.8,6.8-12.7c2.5,1.1,4.6,2.9,6.1,5.2c1.5,2.3,2.6,4.8,3.1,7.5c0.5,2.6,0.6,5.3,0.3,8c-0.3,2.7-0.7,5.4-1.3,8
				c-0.3,1.3-0.6,2.5-1.1,3.7c-0.4,1.2-1.1,2.3-2,3.2c-0.9,0.8-2,1.4-3.2,1.5c-1.2,0.2-2.5,0.2-3.7-0.1c0.1,2,0.3,4,0.7,5.9
				c0.4,2.3,1,4.6,1.3,5.8c0.3,0.2,2.4,3,4.5,5.6s4,5.3,4.1,5.2c3.9-1.4,7.5-3.7,10.4-6.7c2.2-2.2,3.9-4.9,5-7.8
				c0.6-1.8,1-3.6,1.2-5.5C232.3,264.7,232.2,262.8,231.7,260.9z"/>
			<path class="st9" d="M234.8,286.3c1.6,0.7,3.1,1.5,4.7,2.2s3.1,1.5,4.7,2.3l2.6,1.3c0.9,0.5,1.8,0.9,2.6,1.4l1.3,0.7l1.2,0.7
				c0.3,0.2,0.7,0.4,1.1,0.6c0.4,0.2,0.8,0.2,1.2,0.1c0.3-0.1,0.5-0.2,0.8-0.4c0.2-0.2,0.5-0.3,0.7-0.5c0.3-0.3,0.6-0.6,0.9-0.9
				c0.3-0.3,0.7-0.5,1.1-0.6c0.3-0.1,0.7-0.1,1.1,0c0.4,0.1,0.7,0.2,1,0.4c0.3,0.2,0.6,0.4,0.9,0.6c0.3,0.2,0.5,0.5,0.8,0.7
				c0.8,0.7,1.7,1.3,2.6,1.9c0.9,0.6,1.6,1.4,2.2,2.3c0.6,1.1,0.9,2.4,0.8,3.7c-0.1,1.3-0.5,2.5-1.2,3.6c-0.5,0.8-1.1,1.5-1.8,2.2
				c-0.7,0.7-1.4,1.3-2.2,1.8c-0.5,0.4-1.1,0.8-1.7,1.2c-0.6,0.3-1.3,0.5-2,0.4c-1.1-0.1-2.2-0.2-3.3-0.4s-2.2-0.4-3.3-0.6
				c-3-0.5-6-1.2-9-2s-5.9-1.6-8.8-2.6c-1.8-0.6-3.6-1.3-5.3-2c-1.8-0.8-3.4-1.7-5-2.8c2-2.5,3.8-5.2,5.5-8
				C230.5,291,232.5,288.5,234.8,286.3z"/>
			<path class="st12" d="M186.6,254.6c0.3,1.1,0.7,2.1,1.2,3.1c0.5,1,1.1,2,1.8,2.9c1.4,1.9,3.2,3.5,5.1,4.8c2,1.3,4.1,2.4,6.3,3.2
				c0.6,0.2,1.4,0.5,2.2,0.7s1.6,0.5,2.2,0.6c-0.2-0.9-0.4-1.9-0.5-2.9c-0.1-1-0.1-2-0.1-3c-1.3-0.2-2.5-0.5-3.8-0.8
				s-2.4-0.7-3.6-1.1c-2.2-0.8-4.3-2-6.3-3.3C189.4,257.7,187.9,256.3,186.6,254.6z"/>
			<path class="st13" d="M219,275.7c-0.7-0.4-1.3-1-2-1.5c-0.6-0.5-1.3-0.9-2.1-1.3c-0.4-0.2-0.9-0.4-1.4-0.5
				c-0.5-0.1-0.9-0.3-1.4-0.5c-0.9-0.4-1.9-0.9-2.8-1.4c-0.9-0.5-1.8-1-2.7-1.5c0,0,0,0.8,0,1.8s0,2,0,2.6c0,0.7-0.1,1.5-0.1,2.4
				s-0.2,1.6-0.2,2.3s-0.1,1.5-0.2,2.3c-0.1,0.8-0.2,1.5-0.4,2.3c-0.4,1.5-0.5,2.6-0.8,3.6c-0.3,1.2-0.7,2.3-1.4,3.4
				c-0.1,0.3-0.3,0.5-0.5,0.7c-0.2,0.2-0.4,0.4-0.7,0.5c-0.2,0.1-0.4,0.1-0.6,0c-0.2,0-0.4-0.1-0.6-0.2c-4.2-1.4-7.9-4.3-10.2-8
				c-0.4-0.7-0.8-1.4-1.2-2.1s-0.8-1.4-1.2-2.1c-0.3-0.5-0.6-0.9-1-1.3c-0.4-0.4-0.8-0.8-1.2-1.1c-0.2-0.2-0.5-0.3-0.7-0.4l-0.7-0.3
				c-0.2-0.1-0.4-0.3-0.6-0.5c-0.1-0.2-0.3-0.4-0.5-0.6c-0.3-0.3-0.6-0.6-0.9-0.8c-0.3-0.2-0.7-0.4-1.1-0.5c-0.5-0.1-0.9-0.1-1.4,0
				c-0.5,0.1-0.9,0.2-1.4,0.4c-1.7,0.5-3.3,1.2-4.9,1.9s-3.2,1.5-4.7,2.3c-1.4,0.7-2.6,1.3-4.1,2.1c-1.7,0.9-3.3,2.1-4.7,3.4
				c-0.6,0.6-0.5,1.6-0.2,2.7c0.4,1,0.5,2.1,0.5,3.1c-0.1,0.5-0.2,0.9-0.1,1.4c0,0.5,0,0.9,0.1,1.4v-0.1v-0.1
				c0.8,2.4,1.3,4.9,1.4,7.5c0.2,2.5,0.5,5.1,0.9,7.6c0.6,2.8,1.1,5.6,1.7,8.5s1.1,5.6,1.6,8.5c1,5.6,1.9,11.2,2.7,16.8
				s1.3,11.3,1.6,16.9l24.9-0.1l24.9-0.1c-0.3,0-0.8-2.1-1.1-4.3s-0.7-4.6-0.8-5c-0.2-1.6-0.4-3.3-0.4-5s-0.1-3.3,0-5
				c0.1-1.9,0.4-3.7,0.8-5.6c0.4-1.9,0.7-3.8,0.8-5.7c0.2-3.4,0.1-6.9,0.2-10.4s0.1-6.9,0.4-10.4c0-0.1,0-0.2,0-0.2
				c0-0.1,0-0.2,0.1-0.2c1.7,0.4,3.3,0.9,4.9,1.6c2,0.8,4,1.6,4.9,1.8c3-7.6,5.1-15.4,6.5-23.4c-3.1-1.3-6.1-2.7-9.1-4.2
				C224.6,279.2,221.7,277.5,219,275.7z"/>
			<path class="st14" d="M207.7,268.7l2.5,1.3l2.4,1.3c0.3,0.2,0.6,0.4,0.7,0.7c0.2,0.3,0.3,0.6,0.3,1l0.1,4.2l0.1,4.2l-1.7-0.8
				l-1.7-0.8l1.7,1.7l1.7,1.7c-0.8,1.1-1.7,2.1-2.7,3c-2.4,2.1-5.2,3.7-8.3,4.7l1.9-11l1.9-11c0-0.2,0.2-0.4,0.4-0.5
				C207.2,268.6,207.5,268.6,207.7,268.7z"/>
			<path class="st14" d="M202,290.5c0.1,0-2.6-2.2-6-5.9c-4.2-4.6-7.8-9.7-10.5-15.3c-1,0.1-1.9,0.4-2.8,0.8
				c-1.9,0.8-3.5,2.1-4.6,3.9c0.5,2,1.2,3.9,2,5.7c1.4,3,3.6,6.2,6.6,7.1l2.2-0.5l2.2-0.5l-1.5,1.6l-1.5,1.6
				c1.2,0.7,2.4,1.3,3.7,1.6C195.1,291.3,198.6,291.3,202,290.5z"/>
			<path class="st14" d="M200.9,291.2c0,0.4,0.2,0.8,0.5,1.1c0.7,0.6,1.7,0.6,2.3-0.1c0,0,0,0,0,0c0.6-0.7,0.6-1.7-0.1-2.3
				c0,0,0,0,0,0c-0.7-0.6-1.7-0.6-2.3,0.1c0,0,0,0,0,0C201.1,290.4,200.9,290.8,200.9,291.2z"/>
			<path class="st14" d="M207.3,307.4c0,0.4-0.1,0.8-0.4,1.1c-0.6,0.6-1.5,0.6-2.1,0.1c-0.6-0.6-0.6-1.5-0.1-2.1
				c0.3-0.3,0.6-0.5,1-0.5C206.6,305.9,207.3,306.5,207.3,307.4C207.3,307.3,207.3,307.4,207.3,307.4L207.3,307.4z"/>
			<path class="st19" d="M209.7,326.2c0,0.8-0.6,1.5-1.4,1.6c0,0,0,0,0,0c-0.4,0-0.8-0.1-1.1-0.4c-0.3-0.3-0.5-0.6-0.5-1
				c0-0.4,0.1-0.8,0.4-1.1c0.3-0.3,0.6-0.5,1-0.5C208.9,324.7,209.6,325.4,209.7,326.2L209.7,326.2z"/>
			<path class="st14" d="M165.9,321.6c-0.1-0.9-0.6-3.5-1.2-6.2s-1.2-5.8-1.6-7.4c2.8-1.6,5.4-3.4,7.9-5.2s5-3.8,7.4-5.9l1.4-1.2
				c0.5-0.4,0.9-0.8,1.4-1.1s1.3-0.9,2-1.3l1.4-0.8c0,0-0.3,1.1-0.7,2.6c-0.5,1.7-1.2,3.3-2,4.8c-1.1,2-4.6,7-8.1,11.8
				S166.9,320.8,165.9,321.6z"/>
			<path class="st9" d="M251.2,296.9c2.1-3.5,4.3-6.9,6.7-10.2s4.8-6.6,7.1-9.9s4.5-6.6,6.6-10.1s3.9-7,5.7-10.6
				c0,0.1,0.1,0.2,0.2,0.3s0.1,0.2,0.2,0.3c0.3,0.7,0.7,1.3,1.2,1.9c0.5,0.6,1,1.1,1.7,1.5c0.6,0.5,1.2,0.9,1.8,1.2
				c0.7,0.3,1.3,0.5,2.1,0.7c-0.1,0.1-0.1,0.2-0.2,0.3c-0.1,0.1-0.1,0.2-0.1,0.3l-2,6.3l-2,6.3c-0.5,1.7-1,3.3-1.6,5s-1.1,3.3-1.8,5
				c-1.1,2.7-2.1,5.3-3.1,8c-1,2.7-2.1,5.3-3.1,8c-0.4,1.1-0.9,2.2-1.3,3.2c-0.5,1.1-1,2.1-1.7,3c-0.7,1-1.4,1.8-2.3,2.6
				c-0.9,0.8-1.9,1.3-3,1.7c-1.4,0.4-2.9,0.5-4.4,0.1c-1.5-0.3-2.8-1-4-1.9c-1.1-0.8-2-1.8-2.8-2.9c-0.8-1.1-1.4-2.3-1.8-3.6
				c-0.2-1.1-0.1-2.3,0.3-3.4C250.1,298.9,250.6,297.9,251.2,296.9z"/>
			<path class="st12" d="M207,360.6c0.1-0.2,0.1-0.4,0-0.6c0-0.2-0.1-0.4-0.2-0.6c-0.2-0.5-0.5-1-0.7-1.5s-0.5-1-0.7-1.5l0.9,0.8
				l0.9,0.8c0.1,0.1,0.3,0.2,0.4,0.3c0.1,0.1,0.3,0.1,0.5,0.1c0.2,0,0.4-0.1,0.5-0.3c0.1-0.2,0.2-0.4,0.2-0.6c0-0.2,0-0.4-0.1-0.6
				c-0.1-0.2-0.2-0.4-0.3-0.6c-0.1-0.2-0.2-0.4-0.3-0.5c-0.1-0.2-0.2-0.4-0.2-0.6c-0.1-0.8-0.4-1.5-0.6-2.3
				c-0.3-0.8-0.6-1.5-0.9-2.2c-0.4-0.9-1-1.6-1.8-2.3c-0.7-0.6-1.5-1.2-2.3-1.8c1,0.4,1.9,0.8,2.8,1.4c0.9,0.6,1.7,1.2,2.4,2
				c0.1,0.1,0.3,0.3,0.4,0.4c0.1,0.1,0.3,0.3,0.5,0.4c0.2,0.1,0.4,0.1,0.6,0.1c0.4,0,0.8-0.3,0.8-0.8c0,0,0,0,0,0
				c0-0.2,0-0.4-0.2-0.6c-0.1-0.2-0.2-0.4-0.4-0.5l-0.5-0.5c-0.5-0.5-1-1.1-1.4-1.7c-0.4-0.6-0.8-1.2-1.3-1.8
				c-0.4-0.5-0.9-0.9-1.5-1.3c-0.8-0.5-1.7-1-2.6-1.2c-0.9-0.3-1.9-0.5-2.9-0.7c-0.1,0.1-0.2,0-0.2,0c-0.1-0.1-0.2-0.2-0.2-0.2
				c0-0.1,0-0.2,0-0.3c0-0.1,0.1-0.2,0.1-0.3c0.1-0.2,0.2-0.4,0.4-0.6c0.1-0.2,0.2-0.4,0.3-0.7c0.1-0.2,0.1-0.5,0.1-0.7
				c0-0.2-0.1-0.5-0.2-0.7c-0.1-0.2-0.3-0.3-0.5-0.3c-0.2,0-0.4-0.1-0.6,0c-0.2,0-0.4,0.1-0.6,0.1l-0.6,0.2
				c-0.7,0.2-1.4,0.4-2.1,0.4c-0.7,0.1-1.4,0.1-2.1,0c-1,0.2-2,0.4-3,0.8c-1,0.4-1.9,0.8-2.8,1.4c-4.2-2.5-8.5-4.8-13-6.8
				c-4.5-2-9-3.9-13.5-5.6c1.5-3,3.1-6.8,4.5-10.3s2.7-7,3.6-9.5c-2.4-2.1-5-4-7.9-5.4c-2.9-1.4-5.7-3.1-8.4-4.9
				c-3,5-5.1,14.3-6.4,22.5s-1.6,15.2-1,15.8c0.2,0.9,0.7,1.7,1.4,2.2c0.8,0.6,1.6,1,2.5,1.4c5.8,2.5,11.7,4.5,17.7,6.1
				c6,1.6,12.2,2.6,18.5,3c0.5,0.6,1.1,1.2,1.7,1.7c0.7,0.5,1.4,1,2.1,1.5c1,0.6,2.1,1.1,3.3,1.4c1.1,0.4,2.3,0.6,3.5,1
				c1.2,0.3,2.3,0.8,3.3,1.5c1,0.6,1.9,1.5,2.4,2.5l0.2,0.5c0.1,0.2,0.2,0.3,0.3,0.4c0.1,0.1,0.3,0.3,0.4,0.3
				c0.2,0.1,0.3,0.1,0.5,0.1c0.2,0,0.4-0.1,0.5-0.2c0.1-0.1,0.2-0.3,0.1-0.5c0.3,0.4,0.6,0.7,1.1,0.9c0.4,0.2,0.9,0.4,1.3,0.4
				c0.2,0,0.5,0,0.7-0.1C206.7,360.9,206.9,360.8,207,360.6z"/>
			<path class="st13" d="M184.6,291.8c-2.4,4.5-5.1,8.7-8.2,12.8c-3,4.1-6.4,7.8-10.2,11.2c-5.2-2.3-8.2-3.1-10.8-4.4
				s-4.8-3.2-8.2-7.8c2.8-4.2,5.3-9.3,8.1-13.8s5.9-8.4,10.1-10.3"/>
			<path class="st11" d="M246.9,359c0,2.6-8.8,8-20.3,12.7s-25.9,8.8-37,8.8s-17-4-20.1-8.8s-3.4-10.1-3.4-12.7s4.3-3.1,11.4-2.8
				s17,1.1,28.1,1.1s21.5-0.9,29-1.1S246.9,356.4,246.9,359z"/>
			<path class="st9" d="M148.4,384.4c0.5-1.6,1.8-2.8,3.4-3.1c0.9-0.3,1.9-0.4,2.9-0.5l4.6,0.2l4.6,0.2c2.4,0,4.9,0,6.8-0.1
				s3.2-0.2,3.2-0.2l1.2-0.2l1.2-0.2c1-0.3,1.9-0.7,2.9-1.1s2-0.9,3.2-1.4c0.2-0.1,2.1-1,4-1.9s3.8-1.8,4.1-1.9c0.1,0.2,1.1,3.6,2,7
				s1.8,6.7,1.8,6.7c-3.1,0.7-6.8,1.6-10.4,2.5c-3.3,0.9-6.6,1.6-10,2.1c-1.8,0.2-3.5,0.5-5.1,0.7c-1.6,0.2-3.2,0.3-4.8,0.3h-0.5
				h-0.5l-3.3,0.9l-3.3,0.8c-0.9,0.2-1.8,0.2-2.7,0.2c-1.7,0-3.2-0.9-4.1-2.3c-0.3-0.4-0.5-0.9-0.7-1.4c-0.4-1-0.7-2.2-0.8-3.3
				c-0.1-0.9,0-1.9,0.1-2.8C148.2,385.2,148.3,384.8,148.4,384.4z"/>
			<path class="st10" d="M161.7,396l4.4-1.3l4.4-1.3l4.4-0.9l4.4-0.9h-2h-2c0,0-1.3,0-3.1,0.1c-2.2,0.1-4.5,0.4-6.7,0.9l-4.6,1.2
				l-4.6,1.2c-0.9,0.2-1.8,0.3-2.7,0.3c-1.6,0.1-3.2-0.7-4-2.2c-0.3-0.4-0.5-0.9-0.7-1.4c-0.4-1.1-0.7-2.2-0.8-3.3
				c-0.1-0.9,0-1.9,0.1-2.8c0.1-0.4,0.2-0.8,0.3-1.1c0.5-1.6,1.8-2.8,3.4-3.1c0.9-0.3,1.9-0.4,2.9-0.5l4.6,0.2l4.6,0.2
				c2.4,0.1,4.9,0,6.8-0.1s3.2-0.2,3.2-0.2l1.8-0.4l1.7-0.4l-4.2-0.2l-4.4-0.1l-4.6-0.3l-4.6-0.3c-2.6-0.3-5.2-0.3-7.8,0
				c-2.6,0.2-4.8,0.6-4.8,0.6c-3.6,0.5-5.6,2-6.7,3.3c-0.6,0.7-1,1.6-1.2,2.5c-0.1,0.6-0.2,1.1-0.2,1.7c0,0.7,0,1.5,0.1,2.2
				c0.2,1.5,0.3,2.5,0.4,3.2c0.1,0.6,0.3,1.2,0.6,1.7c0.5,0.8,1.2,1.5,2,2.1c2,1.4,4.5,2,6.9,1.7c0,0,2.2-0.1,4.8-0.5
				C156.7,397.4,159.2,396.8,161.7,396z"/>
			<path class="st10" d="M193.4,388.2c6.2-0.8,12.4-1.8,18.6-3.1s12.3-2.7,18.4-4.3c4.2-1.1,8.4-2.4,12.4-4c4-1.5,7.9-3.6,11.5-6
				c1.5-1,2.8-2.1,4.1-3.4c1.2-1.2,2.3-2.7,3-4.2c0.8-1.6,1.2-3.3,1.2-5.1c0-1.7-0.5-3.5-1.4-4.9c-1-1.4-2.3-2.5-3.9-3.2
				c-1.6-0.7-3.3-1.1-5.1-1.1c-1.7,0-3.4,0.2-5.1,0.6c-1.7,0.4-3.3,1-4.9,1.6c-9,3.4-17.4,8-26,12.4s-17.2,8.4-26.5,10.7l1.9,7
				L193.4,388.2z"/>
			<path class="st11" d="M190,387.5l-1.6-5.7l-1.6-5.7c-0.2-0.7-0.1-1.4,0.2-2c0.3-0.6,0.9-1,1.6-1.1l0.8-0.2l0.8-0.2
				c0.7-0.1,1.4,0,2,0.4c0.6,0.4,1.1,1,1.2,1.6l1.6,5.7l1.6,5.7c0.2,0.7,0.1,1.4-0.2,2c-0.3,0.6-0.9,1-1.6,1.1l-0.8,0.2l-0.8,0.2
				c-0.7,0.1-1.4,0-2-0.4C190.6,388.8,190.2,388.2,190,387.5z"/>
			<path class="st9" d="M192.4,420.5l0.2-0.1l0.4-0.1c0,0.2,0.3,1.2,0.6,2.3s0.6,2.2,0.7,2.4c0.4,0.9,0.7,1.7,1,2.5s0.6,1.4,0.9,2.1
				l1.1,1.7l1.1,1.7c0,0,0.8,1,2.1,2.4s3,3.2,4.7,4.9l3.4,3.2l3.4,3.2c0.7,0.7,1.2,1.5,1.7,2.4c0.9,1.4,1,3.2,0.2,4.6
				c-0.2,0.3-0.4,0.7-0.6,1c-0.5,0.8-1.1,1.5-1.9,2.1c-0.9,0.7-1.9,1.3-2.9,1.7c-0.5,0.2-1,0.4-1.4,0.5c-1.6,0.4-3.3-0.1-4.5-1.2
				c-0.7-0.6-1.3-1.3-1.8-2.1l-1.8-3l-1.7-3l-0.4-0.4l-0.4-0.4c-1.1-1.1-2.2-2.4-3.2-3.6c-1-1.3-2-2.6-3.1-4.1
				c-1.7-2.2-3.2-4.4-4.6-6.8c-1.5-2.4-2.7-5-3.6-7.6l5.2-3.1L192.4,420.5z"/>
			<path class="st10" d="M196.3,452.2l-2.2-4.1l-2.2-4.1l-2.5-3.8l-2.5-3.8l1.4,1.4l1.4,1.4c0,0,0.9,0.9,2.1,2.3
				c1.5,1.7,2.8,3.5,4,5.4l2.4,4.1l2.4,4.1c0.4,0.8,1,1.5,1.6,2.1c1.1,1.2,2.8,1.7,4.3,1.3c0.5-0.1,1-0.3,1.4-0.5
				c1.1-0.4,2-1,2.9-1.7c0.7-0.6,1.3-1.3,1.9-2.1c0.2-0.3,0.4-0.7,0.6-1c0.8-1.5,0.7-3.3-0.2-4.6c-0.5-0.9-1-1.6-1.7-2.4l-3.4-3.2
				l-3.3-3.1c-1.8-1.7-3.4-3.5-4.7-4.9s-2.1-2.4-2.1-2.4l-0.9-1.5l-0.9-1.5l3.2,3l3.2,3l3.5,3.1l3.5,3c2,1.6,3.9,3.5,5.4,5.5
				c1.7,2,3,3.8,3,3.8c2.2,2.9,2.5,5.4,2.3,7c-0.1,1-0.4,1.9-0.9,2.7c-0.3,0.5-0.7,0.9-1.1,1.3c-0.5,0.5-1,1-1.6,1.5
				c-1.2,1-2,1.5-2.6,1.9c-0.5,0.3-1.1,0.6-1.6,0.7c-0.9,0.2-1.9,0.2-2.9,0c-2.4-0.5-4.6-1.8-6.1-3.7c0,0-1.4-1.6-3-3.7
				C198.9,456.7,197.5,454.5,196.3,452.2z"/>
			<path class="st10" d="M192.5,420.2c-2.1-9.2-4.4-18.3-6.7-27.4s-4.6-18.2-6.7-27.4c-0.3-1.5-0.7-3-1.2-4.4
				c-0.5-1.4-1.2-2.8-2.1-4c-1.1-1.3-2.4-2.4-4-3.1c-3.2-1.5-6.9-1.3-10,0.4c-1.5,0.8-2.8,2-3.8,3.4c-1.2,1.8-1.9,4-2,6.1
				c-0.1,2.2,0,4.4,0.3,6.6c1.5,9.9,4.9,19.3,9.3,28.4c4.5,9.1,9.6,17.9,15,26.5c0.1-0.1,0.3-0.1,0.4-0.2l0.4-0.2l5.6-2.4
				L192.5,420.2z"/>
			<path class="st11" d="M193.8,423.4l-5.4,2.4l-5.4,2.4c-0.6,0.3-1.4,0.3-2,0.1c-0.6-0.2-1.1-0.7-1.3-1.4l-0.3-0.8l-0.3-0.8
				c-0.2-0.7-0.2-1.4,0.1-2c0.3-0.7,0.8-1.2,1.4-1.5l5.4-2.4l5.4-2.4c0.6-0.3,1.4-0.3,2-0.1c0.6,0.2,1.1,0.7,1.3,1.4l0.3,0.8
				l0.3,0.8c0.2,0.7,0.2,1.4-0.1,2C194.9,422.6,194.4,423.1,193.8,423.4z"/>
			<path class="st7" d="M163.4,353.5h27.5v5h-31.6v-0.9C159.4,355.4,161.2,353.6,163.4,353.5L163.4,353.5z"/>
			<path class="st4" d="M159.2,357.5c0-2.3,1.9-4.2,4.2-4.2h27.8v5.4h-32L159.2,357.5L159.2,357.5z M190.7,353.7h-27.3
				c-2.1,0-3.8,1.7-3.8,3.8l0,0v0.7h31.1L190.7,353.7L190.7,353.7z"/>
			<polygon class="st7" points="187.4,358.5 218.2,358.5 249,358.5 256.8,336.9 264.6,315.3 233.8,315.3 203,315.3 195.2,336.9 			
				"/>
			<path class="st4" d="M202.8,315.3L202.8,315.3v-0.1h62.1l-7.9,21.7l-7.9,21.7v0.1v0.1h-62L195,337L202.8,315.3z M264.3,315.5
				h-61.2l-7.8,21.4l-7.8,21.4h61.2l7.8-21.4L264.3,315.5z"/>
			<polygon class="st2" points="190.5,358.5 221.3,358.5 252.1,358.5 260,336.9 267.8,315.3 237,315.3 206.2,315.3 198.3,336.9 			
				"/>
			<path class="st4" d="M206,315.3L206,315.3v-0.1h62l-7.9,21.7l-7.9,21.7v0.1v0.1h-62l7.9-21.7L206,315.3z M267.5,315.5h-61.2
				l-7.8,21.4l-7.8,21.4H252l7.8-21.4L267.5,315.5z"/>
			<path class="st9" d="M277.9,247.5c-0.6,1.1-1,2.2-1.2,3.5c-0.2,1.2-0.3,2.5-0.3,3.7c0,0.8,0.1,1.5,0.2,2.2
				c0.1,0.7,0.4,1.5,0.7,2.1c0.4,0.7,0.9,1.2,1.5,1.7c0.6,0.5,1.3,0.8,2,1.1c1.1,0.4,2.3,0.6,3.5,0.5c1.2-0.1,2.4-0.4,3.4-0.9
				c0.9-0.5,1.8-1.2,2.5-2c0.7-0.8,1.3-1.6,1.8-2.6c0.5-0.9,0.9-1.8,1.3-2.8c0.4-0.9,0.3-2-0.2-2.9c-0.3-0.3-0.6-0.6-0.9-0.8
				c-0.4-0.2-0.7-0.4-1.1-0.6c-0.4-0.2-0.7-0.3-1.1-0.4c-0.4-0.1-0.8-0.2-1.2-0.1c-0.2,0-0.4,0.1-0.6,0.2c-0.2,0.1-0.4,0.1-0.6,0.2
				c-0.2,0.1-0.5,0.1-0.7,0c-0.2,0-0.4-0.2-0.5-0.4c-0.1-0.2-0.1-0.5-0.1-0.7c0.1-0.2,0.2-0.5,0.3-0.7c0.9-1.6,1.9-3.1,2.9-4.7
				c1-1.5,1.9-3.1,2.6-4.8c0.2-0.4,0.3-0.9,0.4-1.4c0.1-0.4,0-0.9-0.3-1.2c-0.3-0.3-0.7-0.5-1.1-0.5c-0.4,0-0.9,0.1-1.2,0.3
				c-0.4,0.2-0.7,0.5-0.9,0.9c-0.3,0.3-0.5,0.7-0.7,1.1c-0.7,1.2-1.5,2.5-2.2,3.7s-1.5,2.5-2.2,3.7c-0.2,0.3-0.4,0.6-0.5,0.9
				c-0.2,0.3-0.4,0.6-0.6,0.8c-0.2,0.2-0.5,0.4-0.7,0.6c-0.3,0.2-0.5,0.3-0.9,0.4c-0.3,0-0.6,0-0.8-0.1c-0.3-0.1-0.5-0.2-0.8-0.3
				c-0.3-0.1-0.6-0.2-0.9-0.2C278.3,247.2,278.1,247.3,277.9,247.5z"/>
			<path class="st12" d="M289.4,258.3L289.4,258.3c0.4,0.2,0.8,0.2,1.2,0.1c0.4-0.1,0.7-0.4,0.9-0.8l1.4-2.6l1.4-2.6
				c0.2-0.4,0.2-0.8,0.1-1.2c-0.1-0.4-0.4-0.7-0.8-0.9l0,0c-0.4-0.2-0.8-0.2-1.2-0.1c-0.4,0.1-0.7,0.4-0.9,0.8l-1.4,2.6l-1.4,2.6
				C288.3,256.9,288.6,257.9,289.4,258.3L289.4,258.3z"/>
			<path class="st12" d="M286.6,256.8L286.6,256.8c0.4,0.2,0.8,0.2,1.2,0.1c0.4-0.1,0.7-0.4,0.9-0.8l1.4-2.6l1.4-2.6
				c0.2-0.4,0.2-0.8,0.1-1.2c-0.1-0.4-0.4-0.7-0.8-0.9l0,0c-0.4-0.2-0.8-0.2-1.2-0.1c-0.4,0.1-0.7,0.4-0.9,0.8l-1.4,2.6l-1.4,2.6
				c-0.2,0.4-0.2,0.8-0.1,1.2C285.9,256.3,286.2,256.6,286.6,256.8z"/>
			<path class="st12" d="M283.7,255.3L283.7,255.3c0.4,0.2,0.8,0.2,1.2,0.1c0.4-0.1,0.7-0.4,0.9-0.8l1.4-2.6l1.4-2.6
				c0.4-0.8,0.1-1.7-0.7-2.2c0,0,0,0,0,0l0,0c-0.8-0.4-1.7-0.1-2.2,0.7c0,0,0,0,0,0l-1.4,2.6l-1.4,2.6c-0.2,0.4-0.2,0.8-0.1,1.2
				C283,254.8,283.3,255.2,283.7,255.3z"/>
			<path class="st3" d="M289.9,255.8l0.6,0.3l0.6,0.3c0,0,0.1,0.1,0.1,0.1c0,0,0,0.1,0,0.1L291,257l-0.2,0.3
				c-0.1,0.1-0.1,0.2-0.2,0.2c-0.2,0.1-0.5,0.1-0.7,0c-0.1,0-0.2-0.1-0.3-0.2c-0.2-0.2-0.3-0.4-0.3-0.6c0-0.1,0-0.1,0-0.2
				c0-0.2,0.1-0.3,0.2-0.5l0-0.1v-0.1c0,0,0.1-0.1,0.1-0.1C289.7,255.8,289.8,255.8,289.9,255.8
				C289.9,255.8,289.9,255.8,289.9,255.8z"/>
			<path class="st3" d="M287.1,254.3l0.6,0.3l0.6,0.3c0,0,0.1,0.1,0.1,0.1c0,0,0,0.1,0,0.1l-0.2,0.3l-0.1,0.3
				c-0.1,0.1-0.1,0.2-0.2,0.2c-0.2,0.1-0.5,0.1-0.7,0c-0.1,0-0.2-0.1-0.3-0.2c-0.2-0.1-0.3-0.4-0.3-0.6c0-0.1,0-0.1,0-0.2
				c0-0.2,0.1-0.3,0.2-0.4v-0.1l0-0.1c0,0,0.1-0.1,0.1-0.1C286.9,254.3,287,254.3,287.1,254.3z"/>
			<path class="st3" d="M284,253l0.6,0.3l0.6,0.3c0,0,0.1,0.1,0.1,0.1c0,0,0,0.1,0,0.1l-0.2,0.3l-0.1,0.3c-0.1,0.1-0.1,0.2-0.2,0.2
				c-0.2,0.1-0.5,0.1-0.7,0.1c-0.1,0-0.2-0.1-0.3-0.2c-0.2-0.1-0.3-0.4-0.3-0.6c0-0.1,0-0.1,0-0.2c0-0.2,0.1-0.3,0.2-0.4l0-0.1v-0.1
				c0,0,0.1-0.1,0.1-0.1C283.9,253,283.9,253,284,253z"/>
			<path class="st12" d="M283.2,254.6L283.2,254.6c0.8-0.5,1-1.5,0.5-2.3l-1.6-2.4l-1.6-2.4c-0.2-0.4-0.6-0.6-1-0.7
				c-0.4-0.1-0.9,0-1.2,0.2l0,0c-0.4,0.2-0.6,0.6-0.7,1c-0.1,0.4,0,0.9,0.2,1.2l1.6,2.4l1.6,2.4c0.2,0.4,0.6,0.6,1,0.7
				C282.4,254.9,282.9,254.8,283.2,254.6z"/>
			<path class="st3" d="M281.4,252.9l0.5-0.4l0.5-0.4c0.1,0,0.1,0,0.2,0c0.1,0,0.1,0,0.1,0.1l0.2,0.3l0.2,0.3c0,0.1,0.1,0.2,0.1,0.3
				c0,0.3-0.1,0.5-0.3,0.7c-0.1,0.1-0.2,0.1-0.3,0.2c-0.2,0.1-0.5,0.1-0.7,0c-0.1,0-0.1-0.1-0.1-0.1c-0.1-0.1-0.2-0.3-0.3-0.4
				l-0.1-0.1l-0.1-0.1c0-0.1,0-0.1,0-0.2C281.3,253.1,281.3,253,281.4,252.9z"/>
			<path class="st20" d="M32.5,375.8l2.9-0.2l2.9-0.2c-2.5-1.3-5.1-2.7-7.5-4.2c-2.4-1.5-4.7-3.3-6.7-5.2c-2-2-3.7-4.4-4.8-7.1
				c-1.1-2.6-1.6-5.5-1.2-8.3c1,0.4,2,0.6,3,0.6c1,0,2.1-0.1,3.1-0.4c-2.6-2.2-5-4.5-7.4-6.9c-2.3-2.4-4.2-5.2-5.7-8.2
				c-1.5-3.5-2.4-7.3-2.5-11.1c-0.1-3.9,0-7.7,0.4-11.6c0.1-1.3,0.2-2.6,0.5-3.9c0.2-1.3,0.6-2.5,1.1-3.7c0.5-1.2,1.3-2.3,2.2-3.2
				c0.9-0.9,2.1-1.6,3.3-1.9c2-0.4,4.2,0,5.9,1.3c1.8,1.2,3.2,2.9,4.2,4.8c1,1.9,1.9,4.2,2.8,6.6c0.8,2.3,1.8,4.5,2.9,6.6
				c0.5-2.1,0.9-4.1,1.2-6.2c0.2-2.1,0.7-4.2,1.4-6.2c4.4,2.4,8.5,5.3,12.1,8.7c3.7,3.4,7.1,7.1,10.5,10.8c0.7,0.8,1.4,1.6,2,2.5
				c0.6,0.9,1,1.8,1.3,2.9c0.2,0.9,0.2,1.9,0.1,2.8c-0.1,0.9-0.3,1.9-0.5,2.8c-0.7,2.9-1.4,5.8-2.1,8.8s-1.4,5.8-2.1,8.8l4.1-5.8
				l4.1-5.8c0.1,0.7,0.4,1.4,0.8,2.1c0.5,1,1,2,1.1,2.3c0.3,0.7,0.6,1.5,0.8,2.2s0.5,1.5,0.7,2.3c0.4,1.6,0.8,3.2,1.2,4.8
				s0.6,3.2,0.8,4.9c0.4,3.3,0.5,6.5,0.3,9.8c-0.2,3.3-0.6,6.5-1.3,9.7c-0.4,1.6-0.8,3.2-1.3,4.8s-1.1,3.1-1.7,4.7
				c-0.2,0.6-0.5,1.2-0.8,1.8c-0.3,0.6-0.9,1-1.6,0.9c-0.7-0.1-1.3-0.4-1.8-0.9c-0.5-0.5-1.1-1-1.5-1.4c-1.9-1.6-4.1-2.9-6.4-3.9
				c-2.3-1-4.7-1.9-7-2.8c-2.6-0.9-5.2-2.1-7.6-3.5C36.1,380,34,378.1,32.5,375.8z"/>
			<path class="st21" d="M69.4,429.3c-4.3-20.4-10.6-40.3-18.8-59.4c-8.2-19.1-18.3-37.4-30.2-54.5l0.5-0.4l0.5-0.4
				c6,8.6,11.5,17.4,16.6,26.5c5.1,9.1,9.7,18.5,13.8,28.1c4.1,9.6,7.8,19.4,10.9,29.4c3.1,9.9,5.8,20,7.9,30.2l-0.6,0.1L69.4,429.3
				z"/>
			<path class="st21" d="M20.5,331.1c-3.8-0.9-7-3.2-9.2-6.5l0.5-0.4l0.5-0.4c1,1.5,2.2,2.7,3.6,3.8c1.4,1,3.1,1.7,4.8,2.2l-0.1,0.6
				L20.5,331.1z"/>
			<path class="st21" d="M27.8,340.2c-1.8,0-3.6-0.3-5.3-0.8c-1.7-0.5-3.4-1.4-4.9-2.4l0.4-0.5l0.4-0.5c2,1.4,4.3,2.3,6.7,2.7
				c2.4,0.4,4.9,0.3,7.2-0.4l0.2,0.6l0.2,0.6C31,340,29.4,340.2,27.8,340.2L27.8,340.2z"/>
			<path class="st21" d="M41.2,344l-0.5-0.3l-0.5-0.3c2.7-4.7,4.1-10,3.9-15.4h0.6h0.6C45.4,333.6,44,339.1,41.2,344L41.2,344z"/>
			<path class="st21" d="M46.1,353.4l-0.5-0.4l-0.5-0.4c2-2.2,2.8-5.1,2.1-8l0.6-0.1l0.6-0.2C49.3,347.4,48.4,350.9,46.1,353.4
				L46.1,353.4z"/>
			<path class="st22" d="M51.5,379.6c-2.2,0-4.3-0.6-6.2-1.7l0.3-0.5l0.3-0.5c1,0.6,2,1,3.1,1.2c1.1,0.3,2.2,0.3,3.3,0.2v0.6v0.6
				h-0.5L51.5,379.6z"/>
			<path class="st20" d="M108.4,364.4l-2.9,0.4l-2.9,0.3c2.2-1.8,4.4-3.6,6.5-5.6c2.1-1.9,4-4.1,5.6-6.4c1.6-2.4,2.7-5.1,3.4-7.9
				c0.6-2.8,0.5-5.7-0.4-8.4c-0.9,0.5-1.9,0.9-2.9,1.2c-1,0.2-2,0.3-3.1,0.2c2.1-2.6,4.1-5.4,5.9-8.2c1.8-2.8,3.2-5.9,4-9.1
				c0.8-3.7,1-7.6,0.4-11.4c-0.6-3.8-1.5-7.6-2.6-11.3c-0.4-1.2-0.7-2.5-1.2-3.7c-0.5-1.2-1-2.4-1.8-3.5c-0.7-1.1-1.7-2-2.8-2.8
				c-1.1-0.7-2.3-1.2-3.6-1.2c-2.1,0-4.1,0.8-5.5,2.4c-1.5,1.6-2.6,3.5-3.2,5.5c-0.6,2-1,4.5-1.5,7c-0.4,2.4-0.9,4.7-1.6,7
				c-0.9-1.9-1.7-3.9-2.3-5.9c-0.6-2-1.5-4-2.6-5.8c-3.9,3.2-7.3,6.8-10.2,10.9c-3,4-5.6,8.3-8.3,12.6c-0.6,0.9-1.1,1.8-1.5,2.8
				c-0.4,1-0.7,2-0.7,3c0,0.9,0.2,1.9,0.5,2.8c0.3,0.9,0.7,1.8,1.1,2.7l3.7,8.2l3.7,8.2l-5.1-4.9l-5.1-4.9c0,0.8-0.1,1.5-0.4,2.2
				c-0.3,1.1-0.6,2.2-0.7,2.4c-0.1,0.8-0.3,1.6-0.4,2.4s-0.2,1.6-0.3,2.4c-0.2,1.6-0.2,3.3-0.2,4.9s0.1,3.3,0.2,4.9
				c0.5,6.6,2.1,13,4.8,19c0.7,1.5,1.4,3,2.2,4.5s1.7,2.9,2.6,4.3c0.3,0.6,0.7,1.1,1.1,1.7c0.4,0.5,1.1,0.7,1.7,0.6
				c0.6-0.2,1.2-0.7,1.6-1.2c0.4-0.6,0.8-1.2,1.2-1.7c1.6-1.9,3.5-3.6,5.5-5c2-1.5,4.2-2.8,6.3-4.1c2.4-1.4,4.7-3.1,6.8-4.9
				C105.6,369.2,107.3,366.9,108.4,364.4z"/>
			<path class="st21" d="M82.4,423.9h-1.3c0.1-10.4,0.8-20.8,2-31.2c1.2-10.4,2.9-20.7,5.1-30.9c4.4-20.4,10.9-40.4,19.3-59.5
				l0.6,0.2l0.6,0.3C92,341,83,382.2,82.4,423.9z"/>
			<path class="st21" d="M111.6,318.2l-0.3-0.6l-0.3-0.6c3.2-1.5,5.8-4.1,7.1-7.4l0.6,0.2l0.6,0.2c-0.7,1.8-1.8,3.4-3.1,4.8
				C114.9,316.3,113.3,317.4,111.6,318.2z"/>
			<path class="st21" d="M102.9,328.9h-0.7l-0.7,0l0.1-0.6v-0.6c4.9,0.4,9.8-1.5,13.2-5l0.5,0.4l0.4,0.4c-1.7,1.7-3.6,3.1-5.8,4
				C107.6,328.4,105.2,328.9,102.9,328.9z"/>
			<path class="st22" d="M93.8,334.8c-3.7-4.3-6.1-9.4-7.1-15l0.6-0.1l0.6-0.1c0.9,5.3,3.2,10.3,6.8,14.4l-0.5,0.4L93.8,334.8z"/>
			<path class="st22" d="M90.7,345c-2.7-2-4.3-5.2-4.1-8.6h0.6h0.6c-0.1,2.9,1.2,5.7,3.6,7.5l-0.4,0.5L90.7,345z"/>
			<path class="st21" d="M89.5,371.9l-0.1-0.6l-0.1-0.6c1.1-0.1,2.2-0.4,3.2-0.9c1-0.5,2-1.1,2.8-1.8l0.4,0.5l0.4,0.5
				C94.4,370.5,92,371.6,89.5,371.9L89.5,371.9z"/>
			<path class="st21" d="M83,254.9c1-1,1.8-2.1,2.5-3.3c0.7-1.2,1.3-2.5,2.1-3.6c0.8-1.2,1.8-2.2,3-3c1.1-0.8,2.5-1.1,3.9-0.9
				c0.9,0.2,1.8,0.6,2.5,1.3c0.7,0.7,1.4,1.4,2,2.2c2.1,2.9,3.9,6,5.4,9.4c2.7,6.5,4.8,13.3,6,20.2c0.6,3.4,0.8,6.8,0.6,10.2
				c-0.2,3.4-0.8,6.8-2,10c-1.1,3.2-2.9,6.2-5.2,8.7l2.5-0.3l2.5-0.3c-0.1,13.1-5.4,25.7-14.8,34.9c1.8-0.6,3.8-0.9,5.7-1.3
				s3.9-0.8,5.7-1.3c-1.1,3.7-2.8,7.2-5,10.3c-2.3,3.2-4.7,6.2-7.5,9c-2.7,2.8-5.4,5.6-8,8.5c-2.6,2.8-4.9,5.9-6.9,9.3
				c-3.7-3.7-6.9-7.9-9.5-12.4c-2.6-4.5-4.7-9.3-6.2-14.3c-1.4-5-2.4-10.1-2.9-15.3c-0.5-5.2-0.7-10.4-0.6-15.6
				c4.8,2.1,8.9,5.6,11.7,10c-0.4-4.7-1.8-9.3-4.1-13.4c-2.3-4.1-5.4-7.7-9.3-10.5c1.1-7.7,3.3-15.1,6.6-22.1c3.3-7,7.7-13.4,13-19
				c0.9,1.8,1.9,3.5,3,5.2c1.1,1.7,2.3,3.3,3.6,4.9c0.7-2.8,1-5.7,0.8-8.6C84.1,260.6,83.7,257.8,83,254.9z"/>
			<path class="st20" d="M84.6,425.4c-8.6-38.9-9.2-79.2-1.5-118.4c0.4-2.1,0.9-4.3,1.3-6.4s0.9-4.2,1.4-6.3
				c1.1-5,2.2-10.1,3.2-15.2c1-5.1,1.7-10.3,2.2-15.5l0.6,0.1l0.6,0c-0.4,5.2-1.2,10.4-2.2,15.6s-2.1,10.3-3.2,15.3
				c-0.5,2.1-0.9,4.2-1.4,6.3s-0.9,4.3-1.3,6.4c-7.6,39-7,79.1,1.6,117.8l-0.6,0.1L84.6,425.4z"/>
			<path class="st20" d="M80.4,357.2l-0.1-0.6l-0.1-0.6c3.4-0.7,6.1-3.2,7.2-6.5l0.6,0.2l0.6,0.2C87.4,353.6,84.3,356.4,80.4,357.2z
				"/>
			<path class="st20" d="M80.1,321c-3.9-2.8-6.6-7-7.6-11.6l0.6-0.1l0.6-0.1c0.9,4.4,3.4,8.2,7,10.9l-0.4,0.5L80.1,321z"/>
			<path class="st20" d="M79.1,308.3c-2.9-4.6-5-9.7-6-15l0.6-0.1l0.6-0.1c1,5.2,3,10.1,5.8,14.6l-0.5,0.3L79.1,308.3z"/>
			<path class="st20" d="M85.9,299v-0.6v-0.6c3.4-0.2,6.6-1.7,8.9-4.3l0.5,0.4l0.5,0.4C93.3,297.1,89.7,298.8,85.9,299z"/>
			<path class="st20" d="M92.6,277.6l-0.4-0.5l-0.4-0.5c1.3-0.9,2.4-2.1,3.3-3.4c0.9-1.3,1.5-2.8,1.9-4.4l0.6,0.1l0.6,0.1
				c-0.4,1.7-1.1,3.3-2.1,4.8C95.2,275.3,94,276.6,92.6,277.6z"/>
			<path class="st7" d="M33.2,408.6c0.3-1,0.7-1.9,1.2-2.8c0.2-0.4,0.5-0.8,0.7-1.1h75.8c0.3,0.4,0.5,0.8,0.7,1.1
				c0.5,0.9,0.9,1.8,1.2,2.8c0.5,1.8,0.8,3.6,1,5.4c0.2,1.7,0.3,3.5,0.3,5.2c0,6.8-1.7,13.5-5,19.5c-3.2,5.9-7.8,10.9-13.3,14.6
				c-1.4,0.3-2.8,0.6-4.3,0.7c-1.5,0.2-3,0.2-4.4,0.2H58.9c-1.5,0-3-0.1-4.4-0.2c-1.4-0.2-2.9-0.4-4.3-0.7
				c-5.5-3.8-10.1-8.8-13.3-14.6c-3.3-6-5-12.7-5-19.5c0-1.7,0.1-3.5,0.3-5.2C32.4,412.1,32.7,410.3,33.2,408.6z"/>
			<path class="st2" d="M65.5,454.3h21.6c1.5,0,3-0.1,4.4-0.2c1.4-0.2,2.9-0.4,4.3-0.7c5.5-3.8,10.1-8.8,13.3-14.6
				c3.3-6,5-12.7,5-19.5c0-1.7-0.1-3.5-0.3-5.2c-0.2-1.8-0.5-3.6-1-5.4c-0.3-1-0.7-1.9-1.2-2.8c-0.2-0.4-0.5-0.8-0.7-1.1h-0.8
				c0.2,1,0.3,2,0.3,3.1s0.1,2.1,0.1,3.2c0,11.6-4.8,22.7-13.2,30.6C88.8,449.8,77.3,454.3,65.5,454.3z"/>
			<path class="st5" d="M57.6,454.2c0,0-0.8,0-2.2-0.1c-1.8-0.1-3.5-0.4-5.3-0.8c-5.5-3.8-10.1-8.8-13.3-14.6c-3.3-6-5-12.7-5-19.5
				c0-1.7,0.1-3.5,0.3-5.2c0.2-1.8,0.5-3.6,1-5.4c0.3-1,0.7-1.9,1.2-2.8c0.2-0.4,0.5-0.8,0.7-1.1h16.3c-2.9,0.4-9,9.5-10.5,20.1
				S42.5,447.7,57.6,454.2z"/>
		</g>
	</g>
</g>
</svg>
