<?xml version="1.0" standalone="no"?>
<!DOCTYPE svg PUBLIC "-//W3C//DTD SVG 20010904//EN"
 "http://www.w3.org/TR/2001/REC-SVG-20010904/DTD/svg10.dtd">
<svg version="1.0" xmlns="http://www.w3.org/2000/svg"
 width="192.000000pt" height="192.000000pt" viewBox="0 0 192.000000 192.000000"
 preserveAspectRatio="xMidYMid meet">
<metadata>
Created by potrace 1.14, written by Peter Selinger 2001-2017
</metadata>
<g transform="translate(0.000000,192.000000) scale(0.100000,-0.100000)"
fill="#000000" stroke="none">
<path d="M228 1579 c-64 -33 -78 -75 -78 -231 1 -159 12 -189 79 -225 l44 -23
679 0 c588 0 684 2 715 15 76 32 93 75 93 230 0 139 -5 165 -39 201 -51 56
-29 54 -769 54 -664 -1 -688 -2 -724 -21z"/>
<path d="M230 932 c-69 -47 -80 -78 -80 -233 0 -148 14 -189 75 -224 l42 -25
675 0 c372 0 689 3 705 6 37 7 75 39 97 81 12 25 16 60 16 156 0 131 -10 178
-44 212 -47 46 -39 45 -769 44 -631 0 -694 -2 -717 -17z"/>
</g>
</svg>
